<svg xmlns="http://www.w3.org/2000/svg" xmlns:xlink="http://www.w3.org/1999/xlink" id="Layer_1" x="0px" y="0px" viewBox="0 0 2000 600" style="enable-background:new 0 0 2000 600;" xml:space="preserve"><style type="text/css">	.st0{clip-path:url(#SVGID_00000018214610606759621430000002656168077362326145_);}	.st1{fill:#F8F6FB;}	.st2{clip-path:url(#SVGID_00000110441473740008633190000016575416990351995051_);}	.st3{clip-path:url(#SVGID_00000060746082876525582270000001755671702204333233_);}	.st4{clip-path:url(#SVGID_00000035526232069502643760000010478011031725041596_);}	.st5{clip-path:url(#SVGID_00000020361728893810177530000008945414650030340797_);}	.st6{clip-path:url(#SVGID_00000005946695559527660220000010970079086520381616_);}	.st7{clip-path:url(#SVGID_00000060742846320520299720000002271392268603678872_);}	.st8{fill:none;stroke:#F8F6FB;stroke-width:0.5;stroke-miterlimit:1.32;}	.st9{clip-path:url(#SVGID_00000121276928894128319270000012279768920560384139_);}	.st10{clip-path:url(#SVGID_00000042007909528629310500000015640308917971537545_);}	.st11{clip-path:url(#SVGID_00000182488843995829371160000002202667717796554119_);}	.st12{fill:#F6F2F8;}	.st13{fill:#F3703A;}</style><g>	<g>		<defs>			<rect id="SVGID_1_" x="866.4" y="499.4" width="12.1" height="14.7"></rect>		</defs>		<clipPath id="SVGID_00000162329389220908321930000011939257124623272628_">			<use xlink:href="#SVGID_1_" style="overflow:visible;"></use>		</clipPath>		<g style="clip-path:url(#SVGID_00000162329389220908321930000011939257124623272628_);">			<path class="st1" d="M866.4,500.5h5.7c3.3,0,5.5,1.7,5.5,4.6l0,0c0,3.1-2.4,4.8-5.6,4.8h-1.8v3.8h-3.7L866.4,500.5L866.4,500.5    L866.4,500.5z M871.8,507.1c1.3,0,2.1-0.7,2.1-1.7l0,0c0-1.1-0.8-1.7-2.1-1.7h-1.7v3.5L871.8,507.1L871.8,507.1L871.8,507.1z"></path>		</g>	</g></g><path class="st1" d="M878.9,507.9v-7.4h3.7v7.3c0,1.9,1,2.8,2.4,2.8c1.5,0,2.4-0.9,2.4-2.7v-7.4h3.7v7.3c0,4.2-2.4,6.1-6.2,6.1 C881.2,514,878.9,512.1,878.9,507.9L878.9,507.9z"></path><path class="st1" d="M893.3,500.5h3.4l5.4,7v-7h3.6v13.2h-3.2l-5.6-7.2v7.2h-3.6L893.3,500.5L893.3,500.5L893.3,500.5z"></path><path class="st1" d="M907.6,507.2L907.6,507.2c0-3.9,2.9-6.9,6.9-6.9c2.7,0,4.4,1.1,5.6,2.7l-2.7,2.1c-0.8-0.9-1.6-1.5-2.9-1.5 c-1.8,0-3.1,1.6-3.1,3.5l0,0c0,2,1.3,3.5,3.1,3.5c1.4,0,2.2-0.6,3-1.6l2.7,2c-1.2,1.7-2.9,3-5.8,3c-0.4,0-0.9,0-1.3-0.1 c-0.4-0.1-0.9-0.2-1.3-0.4s-0.8-0.4-1.2-0.6c-0.4-0.2-0.7-0.5-1-0.8s-0.6-0.7-0.8-1c-0.2-0.4-0.5-0.8-0.6-1.2 c-0.2-0.4-0.3-0.8-0.4-1.3C907.6,508.1,907.6,507.6,907.6,507.2L907.6,507.2z"></path><path class="st1" d="M921.8,500.5h3.7v4.9h4.7v-4.9h3.7v13.2h-3.7v-5h-4.7v5h-3.7V500.5L921.8,500.5z"></path><path class="st1" d="M941.3,500.5h3.7v10h6.4v3.2h-10v-13.2H941.3L941.3,500.5z"></path><path class="st1" d="M953,500.5h3.7v13.2H953V500.5L953,500.5z"></path><path class="st1" d="M958,511.8l2-2.4c1.3,1,2.7,1.6,4.3,1.6c1,0,1.5-0.3,1.5-0.9l0,0c0-0.6-0.4-0.8-2.2-1.3c-2.8-0.6-5-1.4-5-4.1 l0,0c0-2.4,1.9-4.2,5.1-4.2c2.2,0,4,0.6,5.4,1.8l-1.8,2.6c-1.1-0.8-2.3-1.3-3.7-1.3c-0.9,0-1.3,0.4-1.3,0.8l0,0 c0,0.6,0.5,0.9,2.3,1.3c3,0.7,4.9,1.6,4.9,4.1l0,0c0,2.7-2.1,4.3-5.3,4.3C961.9,513.9,959.7,513.2,958,511.8z"></path><g>	<g>		<defs>			<rect id="SVGID_00000176011077668910370160000013166169969696519061_" x="969.2" y="499.4" width="12.6" height="14.7"></rect>		</defs>		<clipPath id="SVGID_00000005263662776685458220000016054311321014308029_">			<use xlink:href="#SVGID_00000176011077668910370160000013166169969696519061_" style="overflow:visible;"></use>		</clipPath>		<g style="clip-path:url(#SVGID_00000005263662776685458220000016054311321014308029_);">			<path class="st1" d="M974.1,503.7h-3.9v-3.2h11.5v3.2h-3.9v10h-3.7L974.1,503.7L974.1,503.7z"></path>		</g>	</g></g><g>	<g>		<defs>			<rect id="SVGID_00000030469183535226443700000009562082485137405342_" x="897.2" y="522.1" width="12" height="14.5"></rect>		</defs>		<clipPath id="SVGID_00000059277517819757113370000008042407086206972348_">			<use xlink:href="#SVGID_00000030469183535226443700000009562082485137405342_" style="overflow:visible;"></use>		</clipPath>		<g style="clip-path:url(#SVGID_00000059277517819757113370000008042407086206972348_);">			<path class="st1" d="M897.9,523.1h5.7c3.3,0,5.5,1.7,5.5,4.6l0,0c0,3.1-2.4,4.8-5.6,4.8h-2v3.8h-3.6L897.9,523.1L897.9,523.1    L897.9,523.1z M903.3,529.7c1.3,0,2.1-0.7,2.1-1.7l0,0c0-1.1-0.8-1.7-2.1-1.7h-1.8v3.5L903.3,529.7L903.3,529.7z"></path>		</g>	</g></g><g>	<g>		<defs>			<rect id="SVGID_00000163783398437669843360000014330320961799386294_" x="910.5" y="522.1" width="13.3" height="14.5"></rect>		</defs>		<clipPath id="SVGID_00000041993183841002054350000007523562725468815030_">			<use xlink:href="#SVGID_00000163783398437669843360000014330320961799386294_" style="overflow:visible;"></use>		</clipPath>		<g style="clip-path:url(#SVGID_00000041993183841002054350000007523562725468815030_);">			<path class="st1" d="M910.5,523.1h6.2c2,0,3.4,0.5,4.3,1.4c0.8,0.8,1.2,1.8,1.2,3.1l0,0c0,2-1.1,3.4-2.7,4.1l3.1,4.6h-4.2l-2.7-4    h-1.6v4h-3.6V523.1L910.5,523.1z M916.6,529.4c1.2,0,2-0.6,2-1.6l0,0c0-1.1-0.8-1.6-2-1.6h-2.4v3.2L916.6,529.4L916.6,529.4z"></path>		</g>	</g></g><g>	<g>		<defs>			<rect id="SVGID_00000145743875748094780300000012707720455495554462_" x="922.5" y="522.1" width="16" height="14.5"></rect>		</defs>		<clipPath id="SVGID_00000029750920182145921800000011847228712480869780_">			<use xlink:href="#SVGID_00000145743875748094780300000012707720455495554462_" style="overflow:visible;"></use>		</clipPath>		<g style="clip-path:url(#SVGID_00000029750920182145921800000011847228712480869780_);">			<path class="st1" d="M923.6,529.7L923.6,529.7c0-3.8,3-6.9,7.1-6.9s7.1,3,7.1,6.8l0,0c0,3.8-3,6.8-7.1,6.8    C926.6,536.5,923.6,533.5,923.6,529.7L923.6,529.7z M934,529.7L934,529.7c0-2-1.3-3.6-3.4-3.6c-2.1,0-3.3,1.6-3.3,3.5l0,0    c0,1.9,1.4,3.6,3.4,3.6S934,531.6,934,529.7z"></path>		</g>	</g></g><g>	<g>		<defs>			<rect id="SVGID_00000051360065383400468390000014515138596031942067_" x="938.5" y="522.1" width="12" height="14.5"></rect>		</defs>		<clipPath id="SVGID_00000093171810452856424650000005931204741452216982_">			<use xlink:href="#SVGID_00000051360065383400468390000014515138596031942067_" style="overflow:visible;"></use>		</clipPath>		<g style="clip-path:url(#SVGID_00000093171810452856424650000005931204741452216982_);">			<path class="st1" d="M938.6,534.3l2-2.4c1.3,1,2.7,1.6,4.3,1.6c1,0,1.5-0.3,1.5-0.9l0,0c0-0.6-0.4-0.8-2.2-1.3    c-2.8-0.6-5-1.4-5-4.1l0,0c0-2.4,1.9-4.2,5.1-4.2c2.2,0,4,0.6,5.4,1.7l-1.8,2.6c-1.1-0.8-2.3-1.3-3.7-1.3c-0.9,0-1.3,0.4-1.3,0.8    l0,0c0,0.6,0.5,0.9,2.3,1.3c3,0.7,4.9,1.6,4.9,4.1l0,0c0,2.7-2.1,4.3-5.3,4.3C942.4,536.5,940.2,535.8,938.6,534.3L938.6,534.3z"></path>		</g>	</g></g><g>	<g>		<defs>			<rect id="SVGID_00000156551855137312129850000008637602098551717012_" x="897.2" y="438.5" width="58.7" height="55.6"></rect>		</defs>		<clipPath id="SVGID_00000135652340324448557680000009610566810101320320_">			<use xlink:href="#SVGID_00000156551855137312129850000008637602098551717012_" style="overflow:visible;"></use>		</clipPath>		<g style="clip-path:url(#SVGID_00000135652340324448557680000009610566810101320320_);">			<path class="st1" d="M955.4,455.4c0-0.5-0.1-1-0.2-1.4c-0.1-0.5-0.4-0.9-0.6-1.3c-0.3-0.4-0.6-0.8-1-1.1    c-0.4-0.3-0.8-0.5-1.3-0.7s-0.9-0.3-1.4-0.3s-1,0-1.5,0.1s-0.9,0.3-1.4,0.5c-0.4,0.2-0.8,0.6-1.1,0.9l-5.5,5.6l-15.6-17.9    c-0.3-0.4-0.8-0.7-1.2-0.9c-0.5-0.2-1-0.3-1.5-0.3s-1,0.1-1.5,0.3c-0.5,0.2-0.9,0.5-1.3,0.9l-10.9,12v-2.5c0-0.2,0-0.4-0.1-0.6    s-0.2-0.4-0.4-0.5c-0.2-0.2-0.3-0.3-0.5-0.4s-0.4-0.1-0.6-0.1H904c-0.2,0-0.4,0-0.6,0.1s-0.4,0.2-0.5,0.4    c-0.2,0.2-0.3,0.3-0.4,0.5c-0.1,0.2-0.1,0.4-0.1,0.6v10.1l-3.4,3.7c-0.3,0.3-0.4,0.7-0.4,1.1v27c0,0.2,0,0.4,0.1,0.6    s0.2,0.4,0.4,0.5c0.2,0.2,0.3,0.3,0.5,0.4s0.4,0.1,0.6,0.1h45c0.2,0,0.4,0,0.6-0.1c0.2-0.1,0.4-0.2,0.5-0.4    c0.2-0.2,0.3-0.3,0.4-0.5s0.1-0.4,0.1-0.6v-25l7.3-7.3C954.9,458,955.4,456.8,955.4,455.4L955.4,455.4z M952.8,457.7l-0.1,0.1    l-14.5,14.5l-2.4,2.4l-2.1,2.1l-8.3,8.3c-0.4,0.4-0.8,0.7-1.3,0.9c-0.5,0.2-1,0.3-1.6,0.3s-1.1-0.1-1.6-0.3    c-0.5-0.2-0.9-0.5-1.3-0.9l-4-4l-9.4-9.4l-0.1-0.1c-0.3-0.3-0.5-0.7-0.7-1.1s-0.2-0.8-0.2-1.2s0.1-0.8,0.3-1.2    c0.2-0.4,0.4-0.7,0.7-1s0.7-0.5,1.1-0.7c0.4-0.2,0.8-0.2,1.3-0.2c0.4,0,0.8,0.1,1.2,0.3c0.4,0.2,0.7,0.4,1,0.7l4.8,4.8l4.6,4.6    l1.1,1.1c0.3,0.3,0.6,0.4,1,0.5s0.7,0,1.1-0.3c0.2-0.1,0.3-0.2,0.4-0.4l5.4-5.4l4.6-4.6l12-12l2.5-2.5c0.3-0.3,0.6-0.6,1-0.8    c0.4-0.2,0.8-0.3,1.2-0.3s0.9,0,1.3,0.2s0.8,0.4,1.1,0.7c0.3,0.3,0.6,0.6,0.8,1s0.3,0.8,0.3,1.3s-0.1,0.9-0.2,1.3    C953.4,457,953.1,457.3,952.8,457.7L952.8,457.7L952.8,457.7z"></path>		</g>	</g></g><path class="st8" d="M782.4,522.7c0.3,0,0.6,0.1,0.8,0.2c0.3,0.1,0.5,0.3,0.7,0.5s0.4,0.4,0.5,0.7s0.2,0.5,0.2,0.8s-0.1,0.6-0.2,0.8 c-0.1,0.3-0.3,0.5-0.5,0.7s-0.4,0.4-0.7,0.5s-0.5,0.2-0.8,0.2s-0.6-0.1-0.8-0.2c-0.3-0.1-0.5-0.3-0.7-0.5s-0.4-0.4-0.5-0.7 s-0.2-0.5-0.2-0.8s0.1-0.6,0.2-0.8c0.1-0.3,0.3-0.5,0.5-0.7s0.4-0.4,0.7-0.5C781.9,522.8,782.1,522.7,782.4,522.7z"></path><path class="st1" d="M782.3,524.7c0.1,0,0.2,0,0.3-0.1s0.1-0.2,0.1-0.2c0-0.1,0-0.2-0.1-0.2c-0.1-0.1-0.2-0.1-0.3-0.1H782v0.6H782.3  M782,525.1v0.9h-0.6v-2.5h1c0.3,0,0.5,0,0.7,0.2c0.2,0.1,0.2,0.3,0.2,0.5s0,0.3-0.1,0.4c-0.1,0.1-0.2,0.2-0.4,0.2 c0.1,0,0.2,0.1,0.2,0.1c0.1,0.1,0.2,0.2,0.2,0.3l0.4,0.7h-0.7l-0.3-0.6c0-0.1-0.1-0.2-0.2-0.3c-0.1-0.1-0.2-0.1-0.3-0.1L782,525.1"></path><g>	<g>		<defs>			<rect id="SVGID_00000141440144971567137020000001981073728562605969_" x="670.8" y="500.7" width="14.4" height="16"></rect>		</defs>		<clipPath id="SVGID_00000012473989629058304990000001404551552163608471_">			<use xlink:href="#SVGID_00000141440144971567137020000001981073728562605969_" style="overflow:visible;"></use>		</clipPath>		<g style="clip-path:url(#SVGID_00000012473989629058304990000001404551552163608471_);">			<path class="st1" d="M678.1,516.1c-0.9,0-1.7-0.1-2.5-0.4c-0.8-0.3-1.5-0.7-2.2-1.3s-1.2-1.2-1.6-1.9c-0.4-0.7-0.7-1.5-0.9-2.4    c-0.1-0.8-0.1-1.7,0-2.5c0.2-0.8,0.4-1.6,0.9-2.4c0.4-0.7,1-1.4,1.6-1.9c0.7-0.5,1.4-1,2.2-1.3s1.6-0.4,2.5-0.4s1.7,0.2,2.5,0.5    s1.5,0.7,2.2,1.3c0.7,0.6,1.2,1.2,1.6,2c-1.2,0.7-1.3,0.7-2.7,1.4c-0.4-0.6-0.9-1.2-1.5-1.5c-0.7-0.4-1.3-0.6-2.1-0.6    c-0.6,0-1.1,0.1-1.6,0.4c-0.5,0.2-1,0.5-1.3,0.9c-0.4,0.4-0.7,0.9-0.9,1.4s-0.3,1.1-0.3,1.6s0.1,1.1,0.3,1.6s0.5,1,0.9,1.4    c0.4,0.4,0.8,0.7,1.3,0.9s1,0.3,1.6,0.4c0.8,0,1.5-0.2,2.2-0.6c0.7-0.4,1.2-0.9,1.6-1.6c1.4,0.7,1.4,0.8,2.7,1.4    c-0.3,0.6-0.7,1.1-1.1,1.6c-0.4,0.5-1,0.9-1.5,1.2c-0.6,0.3-1.2,0.6-1.8,0.8C679.4,516,678.8,516.1,678.1,516.1L678.1,516.1z"></path>		</g>	</g></g><path class="st1" d="M694.7,510.7l4,5.3h-3.9l-3.6-5.2h-1.5v5.2h-3.2v-14.4h6.5c3.6,0,5,2.3,5,4.6C698,508.2,697,510.1,694.7,510.7 L694.7,510.7L694.7,510.7z M689.7,504.1v4.3h2.5c1.5,0,2.8-0.3,2.8-2.2c0-1.8-1.2-2.2-2.8-2.2h-2.5V504.1L689.7,504.1z"></path><path class="st1" d="M699.6,516.1l6.5-14.4h3.2l6.4,14.4h-3.1l-1.4-3.2h-7.3l-1.5,3.2H699.6L699.6,516.1z M707.8,504.4l-2.4,5.6h4.8 L707.8,504.4L707.8,504.4L707.8,504.4z"></path><path class="st1" d="M730.6,516.1h-3.1l-2.4-9.8l0,0l-2.4,9.8h-3.2l-3.8-14.4h3.2l2,9.8h0.3l2.5-9.8h3l2.5,9.9h0.3l2.1-10h3.1 L730.6,516.1L730.6,516.1z"></path><path class="st1" d="M735.6,516v-14.4h3.1v11.7h7.4v2.7H735.6z"></path><path class="st1" d="M750,511.8c0.3,1.9,2,2.2,3.2,2.2c1.1,0,2.8-0.3,2.8-1.8c0-3.1-8.6-1.1-8.6-6.5c0-3,2.8-4.4,5.4-4.4 c3,0,5.8,1.3,5.8,4.6l-3.1-0.4c-0.4-1.7-1.9-1.7-2.8-1.7c-0.9,0-2.2,0.4-2.2,1.6c0,1.1,0.7,1.3,4.3,2.2c1.1,0.3,4.3,0.9,4.3,4.2 c0,2.7-2.1,4.6-6,4.6c-3.2,0-6.1-1.6-6.1-5.1L750,511.8L750,511.8z"></path><path class="st1" d="M760.9,501.7h6.5c3.6,0,5,2.3,5,4.6s-1.4,4.6-5,4.6h-3.3v5.2h-3.2V501.7L760.9,501.7z M764.1,508.4h2.5 c1.5,0,2.8-0.3,2.8-2.2s-1.3-2.2-2.8-2.2h-2.5V508.4L764.1,508.4z"></path><path class="st1" d="M771.5,516.1l6.5-14.4h3.2l6.4,14.4h-3.1l-1.4-3.2h-7.3l-1.5,3.2H771.5L771.5,516.1z M779.6,504.4l-2.4,5.6h4.8 L779.6,504.4L779.6,504.4z"></path><path class="st1" d="M795.6,516.1c-0.9,0-1.7-0.1-2.5-0.4c-0.8-0.3-1.5-0.7-2.2-1.3s-1.2-1.2-1.6-1.9c-0.4-0.7-0.7-1.5-0.9-2.4 c-0.1-0.8-0.1-1.7,0-2.5c0.2-0.8,0.4-1.6,0.9-2.4c0.4-0.7,1-1.4,1.6-1.9c0.7-0.5,1.4-1,2.2-1.3s1.6-0.4,2.5-0.4s1.7,0.2,2.5,0.5 s1.5,0.7,2.2,1.3c0.7,0.6,1.2,1.2,1.6,2c-1.2,0.7-1.3,0.7-2.7,1.4c-0.4-0.6-0.9-1.2-1.5-1.5c-0.6-0.4-1.3-0.6-2.1-0.6 c-0.6,0-1.1,0.1-1.6,0.4c-0.5,0.2-1,0.5-1.3,0.9c-0.4,0.4-0.7,0.9-0.9,1.4s-0.3,1.1-0.3,1.6s0.1,1.1,0.3,1.6s0.5,1,0.9,1.4 c0.4,0.4,0.8,0.7,1.3,0.9s1,0.3,1.6,0.4c0.8,0,1.5-0.2,2.2-0.6c0.7-0.4,1.2-0.9,1.6-1.6c1.4,0.7,1.4,0.8,2.7,1.4 c-0.3,0.6-0.7,1.1-1.1,1.6c-0.4,0.5-1,0.9-1.5,1.2c-0.6,0.3-1.2,0.6-1.8,0.8C796.9,516,796.2,516.1,795.6,516.1L795.6,516.1z"></path><g>	<g>		<defs>			<rect id="SVGID_00000110431700500204095450000000860421429535600533_" x="802.5" y="500.7" width="12.3" height="16"></rect>		</defs>		<clipPath id="SVGID_00000098928865511407612860000012644122533786973572_">			<use xlink:href="#SVGID_00000110431700500204095450000000860421429535600533_" style="overflow:visible;"></use>		</clipPath>		<g style="clip-path:url(#SVGID_00000098928865511407612860000012644122533786973572_);">			<path class="st1" d="M806.7,510.3v3.1h8.1v2.7h-11.2v-14.4h10.5v2.7h-7.4v3.2h6.6v2.8h-6.6L806.7,510.3L806.7,510.3L806.7,510.3z    "></path>		</g>	</g></g><path class="st1" d="M710.6,523h4.1l3.3,6.4l3.3-6.4h4.2v14.4h-3v-10.2l0,0l-3.2,6.6h-2.4l-3.2-6.5l0,0v10.1h-3L710.6,523L710.6,523 z"></path><path class="st1" d="M731.2,531.6v3.1h8.1v2.7h-11.2V523h10.5v2.7h-7.4v3.2h6.6v2.8L731.2,531.6L731.2,531.6L731.2,531.6z"></path><path class="st1" d="M741.6,523h6.2c3.7,0,6.5,2.4,6.5,7.1c0,4.2-2.1,7.3-6.5,7.3h-6.2V523L741.6,523z M744.7,534.7h2.8 c1.8,0,3.6-1.1,3.6-4.3c0-2.9-1-4.8-4.2-4.8h-2.3v9.1H744.7L744.7,534.7z"></path><path class="st1" d="M756.5,523h3.2v14.4h-3.2V523z"></path><path class="st1" d="M769,537.4c-0.9,0-1.7-0.1-2.5-0.4c-0.8-0.3-1.5-0.7-2.2-1.3s-1.2-1.2-1.6-1.9s-0.7-1.5-0.9-2.4 c-0.1-0.8-0.1-1.7,0-2.5c0.2-0.8,0.4-1.6,0.9-2.4c0.4-0.7,1-1.4,1.6-1.9c0.7-0.6,1.4-1,2.2-1.3s1.6-0.4,2.5-0.4s1.7,0.2,2.5,0.5 s1.5,0.7,2.2,1.3s1.2,1.2,1.6,2c-1.2,0.6-1.3,0.7-2.7,1.4c-0.4-0.6-0.9-1.2-1.5-1.5c-0.7-0.4-1.3-0.6-2.1-0.6 c-0.6,0-1.1,0.1-1.6,0.3s-1,0.5-1.4,0.9s-0.7,0.9-0.9,1.4s-0.3,1.1-0.3,1.6c0,0.6,0.1,1.1,0.3,1.6s0.5,1,0.9,1.4s0.9,0.7,1.4,0.9 s1.1,0.3,1.6,0.3c0.8,0,1.5-0.2,2.2-0.6c0.7-0.4,1.2-1,1.6-1.6c1.4,0.7,1.4,0.8,2.7,1.4c-0.3,0.6-0.7,1.1-1.1,1.6 c-0.5,0.5-1,0.9-1.5,1.2c-0.6,0.3-1.2,0.6-1.8,0.8C770.3,537.3,769.6,537.4,769,537.4L769,537.4z"></path><g>	<g>		<defs>			<rect id="SVGID_00000041263345265542641710000003737525826783755395_" x="729.2" y="434.5" width="28" height="16.9"></rect>		</defs>		<clipPath id="SVGID_00000026145023829751167490000011518688666058124988_">			<use xlink:href="#SVGID_00000041263345265542641710000003737525826783755395_" style="overflow:visible;"></use>		</clipPath>		<g style="clip-path:url(#SVGID_00000026145023829751167490000011518688666058124988_);">			<path class="st1" d="M730,450.5l12.9-16l12.9,16H730L730,450.5z"></path>		</g>	</g></g><path class="st1" d="M734.2,439.1h2.8v6.7h-2.8V439.1z"></path><path class="st1" d="M734.2,450.3v8.2h17.4v-8.2H734.2z M748.8,454.4h-3.7v-3.6h3.7V454.4z"></path><path class="st1" d="M720.7,460.4h44.6c0.3,0,0.5,0,0.8,0.2c0.2,0.1,0.5,0.2,0.6,0.4c0.2,0.2,0.3,0.4,0.4,0.6 c0.1,0.2,0.2,0.5,0.2,0.8v13c0,0.3-0.1,0.5-0.2,0.8c-0.1,0.2-0.2,0.5-0.4,0.6c-0.2,0.2-0.4,0.3-0.6,0.4c-0.2,0.1-0.5,0.2-0.8,0.2 h-44.6c-0.3,0-0.5-0.1-0.8-0.2c-0.2-0.1-0.5-0.2-0.6-0.4c-0.2-0.2-0.3-0.4-0.4-0.6s-0.2-0.5-0.2-0.8v-13c0-0.3,0-0.5,0.2-0.8 c0.1-0.2,0.2-0.5,0.4-0.6s0.4-0.3,0.6-0.4C720.1,460.4,720.4,460.4,720.7,460.4z"></path><path class="st1" d="M736.5,460.4h13c0.3,0,0.5,0,0.8,0.2c0.2,0.1,0.5,0.2,0.6,0.4c0.2,0.2,0.3,0.4,0.4,0.6s0.2,0.5,0.2,0.8v28.9 c0,0.3-0.1,0.5-0.2,0.8c-0.1,0.2-0.2,0.5-0.4,0.6c-0.2,0.2-0.4,0.3-0.6,0.4s-0.5,0.2-0.8,0.2h-13c-0.3,0-0.5,0-0.8-0.2 c-0.2-0.1-0.5-0.2-0.6-0.4c-0.2-0.2-0.3-0.4-0.4-0.6c-0.1-0.2-0.2-0.5-0.2-0.8v-28.9c0-0.3,0.1-0.5,0.2-0.8c0.1-0.2,0.2-0.5,0.4-0.6 c0.2-0.2,0.4-0.3,0.6-0.4C735.9,460.4,736.2,460.4,736.5,460.4z"></path><path class="st12" d="M990.2,348l2.3-4c0.2-0.2,0.5-0.4,0.8-0.5s0.6,0,0.9,0.2c0.2,0.1,3.7,2.7,6.8,2.7c0.4,0.1,0.8,0,1.2-0.1 s0.8-0.3,1.1-0.6c0.3-0.3,0.6-0.6,0.8-1s0.3-0.8,0.3-1.2c0-2-1.7-3.6-5-4.9c-4.1-1.6-9.4-4.9-9.4-10.7c0-4.8,3.7-9.6,11.2-9.6 c1.9,0.1,3.7,0.4,5.4,1c1.8,0.6,3.4,1.5,4.9,2.6c0.2,0.2,0.4,0.4,0.4,0.7c0.1,0.3,0,0.6-0.1,0.8l-2.5,3.7c-0.3,0.5-1.2,1-1.6,0.6 s-4-2.9-6.9-2.9c-0.4,0-0.7,0-1.1,0.1c-0.3,0.1-0.7,0.3-1,0.5s-0.5,0.5-0.7,0.8s-0.3,0.7-0.3,1c0,1.8,1.5,3.1,5.3,4.7 c3.8,1.5,9.8,4.4,9.8,11c0,5-4.3,10-11.4,10c-6.3,0-9.8-2.6-10.9-3.7C990,348.8,989.8,348.6,990.2,348z"></path><path class="st12" d="M1027.3,319.7c0-0.3,0.1-0.5,0.3-0.7c0.2-0.2,0.4-0.3,0.7-0.3h20c0.3,0,0.5,0.1,0.7,0.3 c0.2,0.2,0.3,0.4,0.3,0.7v5.3c0,0.3-0.1,0.5-0.3,0.7c-0.2,0.2-0.4,0.3-0.7,0.3h-13.4v6h11c0.2,0,0.5,0.1,0.6,0.3 c0.2,0.2,0.3,0.4,0.3,0.6v5.3c0,0.3-0.1,0.5-0.3,0.7c-0.2,0.2-0.4,0.3-0.7,0.3h-11v6.5h13.4c0.3,0,0.5,0.1,0.7,0.3 c0.2,0.2,0.3,0.4,0.3,0.7v5.3c0,0.3-0.1,0.5-0.3,0.7c-0.2,0.2-0.4,0.3-0.7,0.3h-20c-0.3,0-0.5-0.1-0.7-0.3c-0.2-0.2-0.3-0.4-0.3-0.7 L1027.3,319.7L1027.3,319.7L1027.3,319.7z"></path><path class="st12" d="M1064.2,319.7c0-0.3,0.1-0.5,0.3-0.7c0.2-0.2,0.4-0.3,0.7-0.3h14.4c0.7,0,1.4,0.1,2,0.2c0.7,0.1,1.3,0.3,2,0.6 c0.6,0.3,1.2,0.6,1.8,1c0.6,0.4,1.1,0.8,1.6,1.3s0.9,1,1.3,1.6s0.7,1.2,1,1.8c0.3,0.6,0.5,1.3,0.6,2s0.2,1.4,0.2,2 c0,4.4-3,8-7.1,9.7l6.6,12.3c0.2,0.3,0.2,0.6,0,1c-0.2,0.3-0.5,0.5-0.8,0.5h-6.4c-0.3,0-0.6-0.1-0.8-0.4l-6.4-12.8h-3.3v12.3 c0,0.2-0.1,0.5-0.3,0.6c-0.2,0.2-0.4,0.3-0.6,0.3h-5.7c-0.3,0-0.5-0.1-0.7-0.3c-0.2-0.2-0.3-0.4-0.3-0.7L1064.2,319.7L1064.2,319.7 L1064.2,319.7z M1079,333.2c0.5,0,1-0.1,1.4-0.3c0.5-0.2,0.8-0.5,1.2-0.9c0.3-0.4,0.6-0.8,0.8-1.2c0.2-0.5,0.3-0.9,0.3-1.4 s-0.1-0.9-0.3-1.4c-0.2-0.4-0.5-0.8-0.8-1.2c-0.3-0.3-0.7-0.6-1.2-0.8s-0.9-0.3-1.4-0.3h-7.1v7.5L1079,333.2L1079,333.2z"></path><path class="st12" d="M1100.9,320c-0.2-0.3-0.1-0.6,0-0.9c0.2-0.3,0.4-0.4,0.8-0.4h6.4c0.4,0,0.7,0.2,0.8,0.5l8,17.6h0.3l8-17.6 c0.2-0.3,0.4-0.5,0.8-0.5h6.4c0.3,0,0.6,0.1,0.8,0.4c0.2,0.3,0.2,0.6,0,0.9l-15.2,32.5c-0.2,0.3-0.4,0.5-0.8,0.5h-0.5 c-0.4,0-0.7-0.2-0.8-0.5L1100.9,320L1100.9,320z"></path><path class="st12" d="M1145.9,319.7c0-0.2,0.1-0.5,0.3-0.6c0.2-0.2,0.4-0.3,0.6-0.3h5.8c0.2,0,0.5,0.1,0.6,0.3 c0.2,0.2,0.3,0.4,0.3,0.6v32c0,0.2-0.1,0.5-0.3,0.6c-0.2,0.2-0.4,0.3-0.6,0.3h-5.8c-0.2,0-0.5-0.1-0.6-0.3c-0.2-0.2-0.3-0.4-0.3-0.6 V319.7z"></path><path class="st12" d="M1185.5,318.3c2.2-0.1,4.3,0.3,6.3,1.1c2,0.8,3.8,1.9,5.4,3.4c0.2,0.2,0.3,0.4,0.3,0.7s-0.1,0.5-0.3,0.7 l-3.8,3.9c-0.2,0.2-0.4,0.2-0.6,0.2s-0.4-0.1-0.6-0.2c-0.9-0.8-1.9-1.4-3-1.8s-2.3-0.6-3.5-0.6c-0.6,0-1.2,0.1-1.9,0.3 c-0.6,0.2-1.2,0.4-1.8,0.6c-0.6,0.3-1.1,0.6-1.6,0.9c-0.5,0.4-1,0.8-1.4,1.2c-0.4,0.5-0.8,0.9-1.2,1.5c-0.3,0.5-0.6,1.1-0.9,1.7 c-0.2,0.6-0.4,1.2-0.5,1.8c-0.1,0.6-0.2,1.2-0.2,1.9c0,0.6,0.1,1.2,0.2,1.9c0.1,0.6,0.3,1.2,0.5,1.8c0.2,0.6,0.5,1.1,0.9,1.7 c0.3,0.5,0.7,1,1.2,1.5c0.4,0.5,0.9,0.9,1.4,1.2c0.5,0.4,1.1,0.7,1.6,0.9c0.6,0.3,1.2,0.5,1.8,0.6c0.6,0.1,1.2,0.2,1.9,0.3 c2.4,0,4.6-0.8,6.5-2.3c0.2-0.1,0.4-0.2,0.6-0.2s0.4,0.1,0.6,0.3l3.8,4c0.2,0.2,0.2,0.4,0.2,0.7s-0.1,0.5-0.2,0.7 c-1.6,1.5-3.4,2.7-5.4,3.5s-4.1,1.2-6.3,1.2c-1.2,0-2.3-0.1-3.5-0.3c-1.1-0.2-2.3-0.5-3.3-0.9c-1.1-0.4-2.1-0.9-3.1-1.6 c-1-0.6-1.9-1.3-2.7-2.2c-0.8-0.8-1.6-1.7-2.2-2.7c-0.7-1-1.2-2-1.7-3c-0.5-1.1-0.8-2.2-1-3.3c-0.2-1.1-0.3-2.3-0.3-3.4 c0-1.2,0.1-2.3,0.3-3.4c0.2-1.1,0.6-2.2,1-3.3c0.5-1.1,1-2.1,1.7-3c0.7-1,1.4-1.8,2.2-2.7c0.8-0.8,1.7-1.5,2.7-2.2 c1-0.6,2-1.2,3.1-1.6s2.2-0.7,3.3-0.9C1183.1,318.3,1184.2,318.2,1185.5,318.3L1185.5,318.3L1185.5,318.3z"></path><path class="st12" d="M1211.7,319.7c0-0.2,0.1-0.5,0.3-0.6c0.2-0.2,0.4-0.3,0.6-0.3h5.8c0.2,0,0.5,0.1,0.6,0.3 c0.2,0.2,0.3,0.4,0.3,0.6v32c0,0.2-0.1,0.5-0.3,0.6c-0.2,0.2-0.4,0.3-0.6,0.3h-5.8c-0.2,0-0.5-0.1-0.6-0.3c-0.2-0.2-0.3-0.4-0.3-0.6 V319.7z"></path><path class="st12" d="M1236.2,319.1c0-0.2,0.1-0.4,0.3-0.6c0.2-0.2,0.4-0.2,0.6-0.2h1.2l19.2,18.5v-17.1c0-0.3,0.1-0.5,0.3-0.7 c0.2-0.2,0.4-0.3,0.7-0.3h5.8c0.2,0,0.5,0.1,0.6,0.3c0.2,0.2,0.3,0.4,0.3,0.6v32.5c0,0.2-0.1,0.5-0.3,0.6c-0.2,0.2-0.4,0.3-0.6,0.3 h-0.8c-0.2,0-0.4-0.1-0.6-0.2l-19.1-19.2v18c0,0.3-0.1,0.5-0.3,0.7c-0.2,0.2-0.4,0.3-0.7,0.3h-5.7c-0.2,0-0.5-0.1-0.6-0.3 c-0.2-0.2-0.3-0.4-0.3-0.6V319.1L1236.2,319.1z"></path><path class="st12" d="M1297.2,318.3c2.2,0,4.3,0.5,6.3,1.2c2,0.8,3.9,1.9,5.5,3.3c0.1,0.1,0.2,0.2,0.2,0.3s0.1,0.2,0.1,0.4 c0,0.1,0,0.2-0.1,0.4c0,0.1-0.1,0.2-0.2,0.3l-3.8,4.1c-0.2,0.2-0.4,0.2-0.7,0.2c-0.2,0-0.5-0.1-0.7-0.2c-0.9-0.8-1.8-1.4-2.9-1.8 s-2.2-0.6-3.4-0.5c-0.6,0-1.3,0.1-1.9,0.2s-1.2,0.3-1.8,0.5c-0.6,0.2-1.1,0.5-1.7,0.9c-0.5,0.4-1,0.8-1.5,1.2 c-0.4,0.5-0.8,0.9-1.2,1.5c-0.4,0.5-0.7,1.1-0.9,1.7c-0.2,0.6-0.4,1.2-0.5,1.8c-0.1,0.6-0.2,1.3-0.2,1.9s0.1,1.3,0.2,1.9 s0.3,1.2,0.5,1.8c0.2,0.6,0.5,1.1,0.9,1.7c0.4,0.5,0.8,1,1.2,1.5c0.5,0.4,0.9,0.8,1.5,1.2c0.5,0.4,1.1,0.7,1.7,0.9 c0.6,0.2,1.2,0.4,1.8,0.6c0.6,0.1,1.2,0.2,1.9,0.2c1.5,0,2.9-0.2,4.3-0.8v-2.8h-3c-0.2,0-0.5-0.1-0.6-0.2c-0.2-0.2-0.3-0.4-0.3-0.6 V336c0-0.3,0.1-0.5,0.3-0.7c0.2-0.2,0.4-0.3,0.7-0.3h9.7c0.2,0,0.4,0.1,0.6,0.3c0.2,0.2,0.2,0.4,0.2,0.6v13c0,0.3-0.2,0.6-0.4,0.8 c-3.7,2.1-7.7,3.1-12,3.1c-1.1,0-2.3-0.1-3.4-0.3c-1.1-0.2-2.2-0.5-3.2-1c-1-0.4-2-1-3-1.6c-0.9-0.6-1.8-1.3-2.6-2.2 c-0.8-0.8-1.5-1.7-2.2-2.6c-0.6-0.9-1.2-1.9-1.6-3s-0.8-2.1-1-3.2s-0.3-2.2-0.3-3.4c0-1.1,0.1-2.3,0.3-3.4c0.2-1.1,0.5-2.2,1-3.3 s1-2,1.6-3c0.6-0.9,1.4-1.8,2.2-2.6c0.8-0.8,1.7-1.5,2.6-2.2c0.9-0.6,1.9-1.2,3-1.6s2.1-0.8,3.2-1 C1294.8,318.3,1295.9,318.2,1297.2,318.3L1297.2,318.3L1297.2,318.3z"></path><path class="st12" d="M1344.2,319.7c0-0.2,0.1-0.5,0.3-0.6c0.2-0.2,0.4-0.3,0.6-0.3h5.7c0.2,0,0.5,0.1,0.7,0.3 c0.2,0.2,0.3,0.4,0.3,0.7V332h13.8v-12.2c0-0.3,0.1-0.5,0.3-0.6c0.2-0.2,0.4-0.3,0.6-0.3h5.7c0.2,0,0.5,0.1,0.6,0.3 c0.2,0.2,0.3,0.4,0.3,0.6v32c0,0.2-0.1,0.5-0.3,0.6c-0.2,0.2-0.4,0.3-0.6,0.3h-5.7c-0.3,0-0.5-0.1-0.7-0.3c-0.2-0.2-0.3-0.4-0.3-0.7 V339h-13.8v12.7c0,0.3-0.1,0.5-0.3,0.7c-0.2,0.2-0.4,0.3-0.7,0.3h-5.7c-0.2,0-0.5-0.1-0.6-0.3c-0.2-0.2-0.3-0.4-0.3-0.6 L1344.2,319.7L1344.2,319.7z"></path><path class="st12" d="M1405,318.3c1.1,0,2.3,0.1,3.4,0.3c1.1,0.2,2.2,0.5,3.3,1c1.1,0.4,2.1,1,3,1.6s1.8,1.4,2.6,2.2 c0.8,0.8,1.5,1.7,2.2,2.6c0.6,0.9,1.2,1.9,1.6,3s0.8,2.1,1,3.3c0.2,1.1,0.3,2.2,0.3,3.4c0,1.1-0.1,2.3-0.3,3.4 c-0.2,1.1-0.5,2.2-1,3.3c-0.4,1.1-1,2.1-1.6,3c-0.6,1-1.3,1.8-2.2,2.6c-0.8,0.8-1.7,1.5-2.6,2.2c-0.9,0.6-1.9,1.2-3,1.6 s-2.1,0.8-3.3,1c-1.1,0.2-2.2,0.3-3.4,0.3c-1.1,0-2.3-0.1-3.4-0.3c-1.1-0.2-2.2-0.5-3.3-1c-1.1-0.4-2.1-1-3-1.6 c-1-0.6-1.8-1.4-2.6-2.2c-0.8-0.8-1.5-1.7-2.2-2.6c-0.6-0.9-1.2-1.9-1.6-3s-0.8-2.1-1-3.3c-0.2-1.1-0.3-2.2-0.3-3.4 c0-1.1,0.1-2.3,0.3-3.4c0.2-1.1,0.5-2.2,1-3.3c0.4-1.1,1-2.1,1.6-3c0.6-1,1.3-1.8,2.2-2.6c0.8-0.8,1.7-1.5,2.6-2.2 c0.9-0.6,1.9-1.2,3-1.6s2.1-0.8,3.3-1C1402.7,318.4,1403.8,318.3,1405,318.3z M1405,345.3c0.6,0,1.3-0.1,1.9-0.2s1.2-0.3,1.8-0.5 c0.6-0.2,1.1-0.5,1.7-0.9c0.5-0.4,1-0.8,1.5-1.2c0.5-0.4,0.9-0.9,1.2-1.5c0.4-0.5,0.7-1.1,0.9-1.7c0.2-0.6,0.4-1.2,0.6-1.8 c0.1-0.6,0.2-1.3,0.2-1.9s-0.1-1.3-0.2-1.9s-0.3-1.2-0.5-1.8c-0.2-0.6-0.5-1.2-0.9-1.7c-0.3-0.5-0.8-1-1.2-1.5 c-0.4-0.4-0.9-0.8-1.5-1.2c-0.5-0.4-1.1-0.7-1.7-0.9c-0.6-0.2-1.2-0.4-1.8-0.6c-0.6-0.1-1.2-0.2-1.9-0.2c-0.6,0-1.3,0.1-1.9,0.2 s-1.2,0.3-1.8,0.6c-0.6,0.2-1.1,0.5-1.7,0.9c-0.5,0.4-1,0.8-1.5,1.2c-0.4,0.5-0.8,0.9-1.2,1.5c-0.3,0.5-0.6,1.1-0.9,1.7 c-0.2,0.6-0.4,1.2-0.5,1.8c-0.1,0.6-0.2,1.2-0.2,1.9c0,0.6,0.1,1.2,0.2,1.9c0.1,0.6,0.3,1.2,0.6,1.8c0.2,0.6,0.5,1.1,0.9,1.7 c0.3,0.5,0.7,1,1.2,1.5c0.4,0.4,0.9,0.8,1.4,1.2c0.5,0.3,1.1,0.6,1.7,0.9c0.6,0.2,1.2,0.4,1.8,0.6 C1403.7,345.2,1404.3,345.3,1405,345.3L1405,345.3z"></path><path class="st12" d="M1440.2,319c0-0.2,0.1-0.4,0.3-0.5c0.2-0.1,0.4-0.2,0.6-0.2h0.8c0.4,0,0.6,0.2,0.8,0.5l11.2,20.9h0.1 l11.2-20.9c0.2-0.3,0.5-0.5,0.8-0.5h0.8c0.2,0,0.4,0.1,0.6,0.2s0.3,0.3,0.3,0.5l5.5,32.5v0.4c0,0.1-0.1,0.3-0.2,0.4 s-0.2,0.2-0.3,0.2c-0.1,0.1-0.3,0.1-0.4,0.1h-5.6c-0.2,0-0.4-0.1-0.6-0.2s-0.3-0.3-0.3-0.5l-2.2-14.9h-0.1l-8.1,15.7 c-0.2,0.3-0.5,0.5-0.8,0.5h-0.9c-0.4,0-0.6-0.2-0.8-0.5l-8.2-15.7h-0.1l-2.1,14.9c0,0.2-0.1,0.4-0.3,0.6c-0.2,0.2-0.4,0.2-0.6,0.2 h-5.7c-0.1,0-0.3,0-0.4-0.1s-0.2-0.1-0.3-0.2c-0.1-0.1-0.2-0.2-0.2-0.4v-0.4L1440.2,319L1440.2,319z"></path><path class="st12" d="M1488,319.7c0-0.3,0.1-0.5,0.3-0.7c0.2-0.2,0.4-0.3,0.6-0.3h20c0.3,0,0.5,0.1,0.7,0.3c0.2,0.2,0.3,0.4,0.3,0.7 v5.3c0,0.3-0.1,0.5-0.3,0.7c-0.2,0.2-0.4,0.3-0.7,0.3h-13.4v6h11c0.2,0,0.5,0.1,0.6,0.3c0.2,0.2,0.3,0.4,0.3,0.6v5.3 c0,0.3-0.1,0.5-0.3,0.6c-0.2,0.2-0.4,0.3-0.6,0.3h-11v6.5h13.4c0.3,0,0.5,0.1,0.7,0.3c0.2,0.2,0.3,0.4,0.3,0.7v5.3 c0,0.3-0.1,0.5-0.3,0.7c-0.2,0.2-0.4,0.3-0.7,0.3h-20c-0.3,0-0.5-0.1-0.7-0.3c-0.2-0.2-0.3-0.4-0.3-0.7L1488,319.7L1488,319.7 L1488,319.7z"></path><path class="st12" d="M1522.9,348l2.2-4c0.2-0.2,0.5-0.4,0.8-0.5s0.6,0,0.9,0.2c0.2,0.1,3.7,2.7,6.8,2.7c0.4,0.1,0.8,0,1.2-0.1 c0.4-0.1,0.8-0.3,1.1-0.6c0.3-0.3,0.6-0.6,0.8-1c0.2-0.4,0.3-0.8,0.3-1.2c0-2-1.7-3.6-5-4.9c-4.2-1.6-9.4-4.9-9.4-10.7 c0-4.8,3.7-9.6,11.1-9.6c1.9,0.1,3.7,0.4,5.4,1c1.8,0.6,3.4,1.5,4.9,2.6c0.2,0.2,0.4,0.4,0.4,0.7c0.1,0.3,0,0.6-0.1,0.8l-2.5,3.7 c-0.3,0.5-1.2,1-1.6,0.6c-0.4-0.3-4-2.9-6.9-2.9c-0.4,0-0.7,0-1.1,0.1c-0.3,0.1-0.7,0.3-0.9,0.5c-0.3,0.2-0.5,0.5-0.7,0.8 s-0.3,0.7-0.3,1c0,1.8,1.5,3.1,5.3,4.7c3.8,1.5,9.7,4.4,9.7,11c0,5-4.3,10-11.4,10c-6.3,0-9.7-2.6-10.9-3.7 C1522.7,348.8,1522.6,348.6,1522.9,348L1522.9,348z"></path><path class="st12" d="M461.9,348l2.3-4c0.2-0.2,0.5-0.4,0.8-0.5s0.6,0,0.9,0.2c0.2,0.1,3.7,2.7,6.8,2.7c0.4,0.1,0.8,0,1.2-0.1 c0.4-0.1,0.8-0.3,1.1-0.6s0.6-0.6,0.8-1c0.2-0.4,0.3-0.8,0.3-1.2c0-2-1.7-3.6-5-4.9c-4.2-1.6-9.4-4.9-9.4-10.7 c0-4.8,3.7-9.6,11.1-9.6c1.9,0.1,3.7,0.4,5.4,1c1.8,0.6,3.4,1.5,4.9,2.6c0.2,0.2,0.4,0.4,0.4,0.7c0.1,0.3,0,0.6-0.1,0.8l-2.5,3.7 c-0.3,0.5-1.2,1-1.6,0.6c-0.4-0.3-4-2.9-6.9-2.9c-0.4,0-0.7,0-1.1,0.1s-0.7,0.3-1,0.5s-0.5,0.5-0.7,0.8s-0.3,0.7-0.3,1 c0,1.8,1.5,3.1,5.3,4.7c3.8,1.5,9.7,4.4,9.7,11c0,5-4.3,10-11.4,10c-6.3,0-9.7-2.6-10.9-3.7C461.7,348.8,461.5,348.6,461.9,348 L461.9,348z"></path><path class="st12" d="M499,319.7c0-0.3,0.1-0.5,0.3-0.6c0.2-0.2,0.4-0.3,0.6-0.3h20c0.2,0,0.5,0.1,0.6,0.3c0.2,0.2,0.3,0.4,0.3,0.6 v5.3c0,0.3-0.1,0.5-0.3,0.6c-0.2,0.2-0.4,0.3-0.6,0.3h-13.4v6h11c0.2,0,0.5,0.1,0.6,0.3c0.2,0.2,0.3,0.4,0.3,0.6v5.3 c0,0.3-0.1,0.5-0.3,0.6c-0.2,0.2-0.4,0.3-0.6,0.3h-11v6.5h13.4c0.2,0,0.5,0.1,0.6,0.3c0.2,0.2,0.3,0.4,0.3,0.6v5.3 c0,0.3-0.1,0.5-0.3,0.7s-0.4,0.3-0.6,0.3h-20c-0.2,0-0.5-0.1-0.6-0.3c-0.2-0.2-0.3-0.4-0.3-0.7L499,319.7L499,319.7L499,319.7z"></path><path class="st12" d="M535.9,319.7c0-0.3,0.1-0.5,0.3-0.6c0.2-0.2,0.4-0.3,0.6-0.3h14.4c0.7,0,1.4,0.1,2,0.2c0.7,0.1,1.3,0.3,2,0.6 c0.6,0.3,1.2,0.6,1.8,1s1.1,0.8,1.6,1.3s0.9,1,1.3,1.6c0.4,0.6,0.7,1.2,1,1.8c0.3,0.6,0.5,1.3,0.6,2s0.2,1.4,0.2,2 c0,4.4-2.9,8-7.1,9.7l6.6,12.3c0.2,0.3,0.2,0.6,0,1c-0.2,0.3-0.5,0.5-0.8,0.5H554c-0.3,0-0.6-0.1-0.8-0.4l-6.4-12.8h-3.4v12.3 c0,0.2-0.1,0.5-0.3,0.6c-0.2,0.2-0.4,0.3-0.6,0.3h-5.7c-0.3,0-0.5-0.1-0.7-0.3c-0.2-0.2-0.3-0.4-0.3-0.7L535.9,319.7L535.9,319.7z  M550.7,333.2c0.5,0,1-0.1,1.4-0.3c0.5-0.2,0.8-0.5,1.2-0.9c0.3-0.4,0.6-0.8,0.8-1.2c0.2-0.5,0.3-0.9,0.3-1.4s-0.1-0.9-0.3-1.4 c-0.2-0.4-0.5-0.8-0.8-1.2c-0.3-0.3-0.7-0.6-1.2-0.8c-0.4-0.2-0.9-0.3-1.4-0.3h-7.1v7.5L550.7,333.2L550.7,333.2z"></path><path class="st12" d="M572.6,320c-0.2-0.3-0.2-0.6,0-0.9s0.4-0.4,0.8-0.4h6.4c0.4,0,0.7,0.2,0.8,0.5l8,17.6h0.3l8-17.6 c0.2-0.3,0.4-0.5,0.8-0.5h6.4c0.3,0,0.6,0.1,0.8,0.4s0.2,0.6,0,0.9l-15.2,32.5c-0.2,0.3-0.4,0.5-0.8,0.5h-0.5 c-0.4,0-0.7-0.2-0.8-0.5L572.6,320z"></path><path class="st12" d="M617.6,319.7c0-0.3,0.1-0.5,0.3-0.6c0.2-0.2,0.4-0.3,0.6-0.3h5.8c0.2,0,0.5,0.1,0.6,0.3 c0.2,0.2,0.3,0.4,0.3,0.6v32c0,0.2-0.1,0.5-0.3,0.6c-0.2,0.2-0.4,0.3-0.6,0.3h-5.8c-0.2,0-0.5-0.1-0.6-0.3c-0.2-0.2-0.3-0.4-0.3-0.6 V319.7z"></path><path class="st12" d="M642.1,319.1c0-0.2,0.1-0.5,0.3-0.6c0.2-0.2,0.4-0.3,0.6-0.2h1.2l19.3,18.5v-17.1c0-0.3,0.1-0.5,0.3-0.6 c0.2-0.2,0.4-0.3,0.6-0.3h5.8c0.3,0,0.5,0.1,0.6,0.3c0.2,0.2,0.3,0.4,0.3,0.6v32.5c0,0.2-0.1,0.5-0.3,0.6c-0.2,0.2-0.4,0.2-0.6,0.2 h-0.8c-0.2,0-0.4-0.1-0.6-0.2l-19-19.2v18c0,0.3-0.1,0.5-0.3,0.7s-0.4,0.3-0.7,0.3H643c-0.2,0-0.5-0.1-0.6-0.3 c-0.2-0.2-0.3-0.4-0.3-0.6L642.1,319.1L642.1,319.1L642.1,319.1z"></path><path class="st12" d="M703.1,318.3c2.2,0,4.3,0.5,6.3,1.2c2,0.8,3.8,1.9,5.5,3.3c0.1,0.1,0.2,0.2,0.3,0.3c0.1,0.1,0.1,0.2,0.1,0.3 s0,0.2-0.1,0.4c0,0.1-0.1,0.2-0.2,0.3l-3.8,4.1c-0.2,0.2-0.4,0.2-0.7,0.2s-0.5-0.1-0.7-0.2c-0.9-0.8-1.8-1.4-2.9-1.8 s-2.2-0.6-3.4-0.5c-0.6,0-1.3,0.1-1.9,0.2c-0.6,0.1-1.2,0.3-1.8,0.5s-1.1,0.5-1.7,0.9c-0.5,0.4-1,0.8-1.5,1.2 c-0.4,0.5-0.8,0.9-1.2,1.5c-0.3,0.5-0.7,1.1-0.9,1.7s-0.4,1.2-0.6,1.8c-0.1,0.6-0.2,1.3-0.2,1.9s0.1,1.3,0.2,1.9 c0.1,0.6,0.3,1.2,0.6,1.8c0.2,0.6,0.5,1.1,0.9,1.7c0.4,0.5,0.8,1,1.2,1.5c0.5,0.4,0.9,0.8,1.5,1.2c0.5,0.4,1.1,0.7,1.7,0.9 c0.6,0.2,1.2,0.4,1.8,0.6c0.6,0.1,1.2,0.2,1.9,0.2c1.5,0,2.9-0.2,4.3-0.8v-2.8h-3c-0.2,0-0.5-0.1-0.6-0.2c-0.2-0.2-0.3-0.4-0.3-0.6 v-5c0-0.3,0.1-0.5,0.3-0.7s0.4-0.3,0.7-0.3h9.7c0.2,0,0.5,0.1,0.6,0.3c0.2,0.2,0.2,0.4,0.2,0.6v13c0,0.3-0.2,0.6-0.4,0.8 c-3.7,2.1-7.7,3.1-12,3.1c-1.1,0-2.3-0.1-3.4-0.3c-1.1-0.2-2.2-0.5-3.2-1c-1.1-0.4-2.1-1-3-1.6s-1.8-1.3-2.6-2.2 c-0.8-0.8-1.5-1.7-2.2-2.6c-0.6-0.9-1.2-1.9-1.6-3c-0.4-1.1-0.8-2.1-1-3.2s-0.3-2.2-0.3-3.4c0-1.1,0.1-2.3,0.3-3.4s0.6-2.2,1-3.3 c0.4-1.1,1-2,1.6-3c0.6-0.9,1.3-1.8,2.2-2.6c0.8-0.8,1.7-1.5,2.6-2.2c0.9-0.6,1.9-1.2,3-1.6c1-0.4,2.1-0.8,3.2-1 C700.7,318.3,701.9,318.2,703.1,318.3L703.1,318.3L703.1,318.3z"></path><path class="st12" d="M806.2,304.3c-2.5,8.8-10.5,20.7-20.4,21.6c-1.7,0.1-5.3-1.6-6.5-3.5c-7.1,13.5-10.9,28.2-14.4,42.8 c-0.9,3.8-7.5-0.3-6.8-3.6c5.4-22.5,10.8-45.1,16.2-67.6c0.9-3.8,7.5,0.3,6.8,3.6c-0.7,2.9-1.4,5.9-2.1,8.8c2.7-4.3,5.9-8.3,9.5-12 c4.1-4.2,8.9-7.7,14.4-3.4C806.9,294.3,807.5,299.5,806.2,304.3L806.2,304.3z M799.2,295.8c-0.3,0.2-0.7,0.5-1,0.8 c-0.8,0.7-1.6,1.5-2.3,2.3c-3.3,3.4-6.3,7.1-8.9,11c-1.8,2.7-3.5,5.4-5.2,8.2c7.6-1.3,14.3-11.9,16.8-18.9 C798.9,298.1,799.1,297,799.2,295.8L799.2,295.8L799.2,295.8z"></path><path class="st12" d="M830.3,336.9c-9,7.1-14.6,12.3-25.2,17.1c-3.9,1.8-8,2.5-11.1-1.1c-4.9-5.4-0.1-14.6,3.5-19.3 c3.2-4.3,9.2-9.3,14.4-4.8c7.5,6.5-8,14.3-12.2,16.8c-0.3,0.9-0.5,1.9-0.7,2.8c7.1-1.6,23.8-11.8,30.4-18 C831.9,328.3,832.5,335.2,830.3,336.9L830.3,336.9z"></path><path class="st12" d="M882.5,329.1c-2.1,7.5-9,17.8-17.5,18.5c-1.5,0.1-3.5-1.5-4.6-3.1c-6,11.7-10.5,24-13.4,36.8 c-0.8,3.2-7.4-1.1-6.7-4l13.9-57.9c0.8-3.2,7.4,1.1,6.7,4c-0.6,2.5-1.2,5-1.8,7.6c2.3-3.7,5-7.2,8.1-10.4c3.6-3.6,7.6-6.6,12.4-2.9 C883,320.4,883.6,324.9,882.5,329.1L882.5,329.1z M875.9,323.2c-0.3,0.2-0.5,0.4-0.8,0.7c-0.7,0.6-1.3,1.2-1.9,1.8 c-2.6,2.8-5,5.8-7.1,9c-1.4,2.2-2.8,4.4-4,6.6c6.4-1.3,11.6-9.9,13.4-15.4C875.8,325,875.9,324.1,875.9,323.2L875.9,323.2 L875.9,323.2z"></path><path class="st12" d="M932.7,325.3c-5,6.5-22.8,14.3-30.4,17.4c-3.6,1.5-7.1,2.5-10.1-0.5s-3.9-7.2-3.4-11.5 c0.6-5.8,9.4-35.3,13.2-47.3c1-3.2,7.5,1.2,6.7,4c-4.2,13.2-14.2,45.9-13.3,50.3c8.8-2.1,25.4-10,28.5-13.9 C925.6,321.3,934.6,322.8,932.7,325.3z"></path><path class="st12" d="M954.2,322.8c-9,7.1-18.4,15.2-28.9,20.1c-3.9,1.8-8,2.4-11.1-1.1c-4.9-5.5,0-14.6,3.5-19.3 c3.2-4.3,9.2-9.3,14.4-4.7c7.5,6.5-8,14.3-12.2,16.8c-0.3,0.9-0.5,1.9-0.7,2.8c7.1-1.6,23.8-11.8,30.4-18 C952,317.1,956.4,321,954.2,322.8L954.2,322.8z"></path><path class="st13" d="M861.2,358.6c15.5-1.9,38.1-3.8,45.2-4.4c14.7-1.3,29.5-2.2,44.3-2.7c3.9-0.2,1.5,10.1-1.9,10.3 c-53.6,0.8-90.3,4.5-90.3,4.5"></path><path class="st13" d="M835.7,367.8c-17.8,0.8-59.8,8.1-76.7,14.1c-3,1.9-6.2-3-3.1-5c13.7-5.3,50.5-14.4,81.5-16.9"></path><path class="st12" d="M843.1,322.1c-2.2-2.1-10-0.6-8.5,1.9c-11.4,0.1-19.8,19.7-8.6,26.6c0.1,0.1,0.2,0.1,0.3,0.1 c0.1,0.1,0.2,0.1,0.3,0.2c1.2,0.7,2.6,1.2,4,1.4c0.5,0.1,1.1,0.1,1.6,0c5.9-0.2,10-5.8,12.7-10.8 C848.5,335.2,848.8,327.2,843.1,322.1L843.1,322.1z M836.5,338.8c-2.3,3.9-5.5,5.8-6.8,5.9c-0.5,0-1.7-0.3-0.5-3.9 c1.2-3.5,4.5-9.7,8.9-9.3C838.3,334.2,837.8,336.6,836.5,338.8L836.5,338.8z"></path><path class="st12" d="M516.1,231.2h-35.3c-0.5,0-0.9-0.1-1.3-0.3s-0.8-0.4-1.1-0.8c-0.3-0.3-0.6-0.7-0.8-1.1 c-0.2-0.4-0.3-0.9-0.3-1.3v-46.4c0-0.2,0-0.4-0.1-0.7c-0.1-0.2-0.2-0.4-0.4-0.6c-0.2-0.2-0.3-0.3-0.6-0.4c-0.2-0.1-0.4-0.1-0.7-0.1 H439c-0.2,0-0.4,0-0.7,0.1c-0.2,0.1-0.4,0.2-0.6,0.4s-0.3,0.3-0.4,0.6c-0.1,0.2-0.1,0.4-0.1,0.7v46.4c0,0.5-0.1,0.9-0.3,1.3 c-0.2,0.4-0.4,0.8-0.8,1.1c-0.3,0.3-0.7,0.6-1.1,0.8s-0.9,0.3-1.3,0.3h-35.3c-0.5,0-0.9-0.1-1.3-0.3s-0.8-0.4-1.1-0.8 c-0.3-0.3-0.6-0.7-0.8-1.1c-0.2-0.4-0.3-0.9-0.3-1.3V94.4c0-0.5,0.1-0.9,0.3-1.3c0.2-0.4,0.4-0.8,0.8-1.1c0.3-0.3,0.7-0.6,1.1-0.8 c0.4-0.2,0.9-0.3,1.3-0.3h35.2c0.5,0,0.9,0.1,1.3,0.3c0.4,0.2,0.8,0.4,1.1,0.8c0.3,0.3,0.6,0.7,0.8,1.1c0.2,0.4,0.3,0.9,0.3,1.3 v47.3c0,0.2,0,0.4,0.1,0.7c0.1,0.2,0.2,0.4,0.4,0.6c0.2,0.2,0.3,0.3,0.6,0.4c0.2,0.1,0.4,0.1,0.7,0.1h36.6c0.2,0,0.4,0,0.7-0.1 c0.2-0.1,0.4-0.2,0.6-0.4s0.3-0.3,0.4-0.6c0.1-0.2,0.1-0.4,0.1-0.7V94.4c0-0.5,0.1-0.9,0.3-1.3c0.2-0.4,0.4-0.8,0.8-1.1 c0.3-0.3,0.7-0.6,1.1-0.8c0.4-0.2,0.9-0.3,1.3-0.3h35.3c0.5,0,0.9,0.1,1.3,0.3c0.4,0.2,0.8,0.4,1.1,0.8c0.3,0.3,0.6,0.7,0.8,1.1 s0.3,0.9,0.3,1.3v133.3c0,0.5-0.1,0.9-0.3,1.3c-0.2,0.4-0.4,0.8-0.8,1.1c-0.3,0.3-0.7,0.6-1.1,0.8 C517,231.1,516.6,231.2,516.1,231.2L516.1,231.2z"></path><path class="st12" d="M732.2,172.2v55.5c0,0.5-0.1,0.9-0.3,1.3c-0.2,0.4-0.4,0.8-0.8,1.1c-0.3,0.3-0.7,0.6-1.1,0.8 c-0.4,0.2-0.9,0.3-1.3,0.3h-31.9c-0.5,0-0.9-0.1-1.3-0.3c-0.4-0.2-0.8-0.4-1.1-0.8c-0.3-0.3-0.6-0.7-0.8-1.1 c-0.2-0.4-0.3-0.9-0.3-1.3V94.4c0-0.5,0.1-0.9,0.3-1.3s0.4-0.8,0.8-1.1c0.3-0.3,0.7-0.6,1.1-0.8c0.4-0.2,0.9-0.3,1.3-0.3h36.9 c0.7,0,1.3,0.2,1.9,0.6c0.6,0.4,1,0.9,1.3,1.5l32.1,74.3L798.4,93c0.3-0.7,0.7-1.2,1.3-1.6s1.2-0.6,1.9-0.6h38.8 c0.5,0,0.9,0.1,1.3,0.3c0.4,0.2,0.8,0.4,1.1,0.8c0.3,0.3,0.6,0.7,0.8,1.1s0.3,0.9,0.3,1.3v133.3c0,0.5-0.1,0.9-0.3,1.3 c-0.2,0.4-0.4,0.8-0.8,1.1c-0.3,0.3-0.7,0.6-1.1,0.8c-0.4,0.2-0.9,0.3-1.3,0.3h-32.8c-0.5,0-0.9-0.1-1.3-0.3 c-0.4-0.2-0.8-0.4-1.1-0.8c-0.3-0.3-0.6-0.7-0.8-1.1c-0.2-0.4-0.3-0.9-0.3-1.3v-57c0-0.3-0.1-0.6-0.3-0.9c-0.2-0.3-0.5-0.4-0.8-0.5 s-0.6,0-0.9,0.1c-0.3,0.2-0.5,0.4-0.6,0.7l-24.2,56.9c-0.2,0.5-0.6,0.9-1,1.2c-0.5,0.3-1,0.5-1.6,0.5H762c-0.6,0-1.1-0.2-1.5-0.5 c-0.5-0.3-0.8-0.7-1-1.2L735,171.6c-0.1-0.3-0.4-0.5-0.7-0.7s-0.6-0.2-0.9-0.1c-0.3,0.1-0.6,0.2-0.8,0.5 C732.3,171.6,732.2,171.9,732.2,172.2L732.2,172.2z"></path><path class="st12" d="M874.6,90.9h100c0.5,0,0.9,0.1,1.3,0.3c0.4,0.2,0.8,0.4,1.1,0.8c0.3,0.3,0.6,0.7,0.8,1.1s0.3,0.9,0.3,1.3v28.2 c0,0.5-0.1,0.9-0.3,1.3s-0.4,0.8-0.8,1.1c-0.3,0.3-0.7,0.6-1.1,0.8c-0.4,0.2-0.9,0.3-1.3,0.3h-59.8c-0.2,0-0.4,0-0.7,0.1 c-0.2,0.1-0.4,0.2-0.6,0.4c-0.2,0.2-0.3,0.3-0.4,0.6c-0.1,0.2-0.1,0.4-0.1,0.7v13.9c0,0.2,0,0.5,0.1,0.7s0.2,0.4,0.4,0.6 c0.2,0.2,0.3,0.3,0.6,0.4c0.2,0.1,0.4,0.1,0.7,0.1h51.1c0.5,0,0.9,0.1,1.3,0.3c0.4,0.2,0.8,0.4,1.1,0.8c0.3,0.3,0.6,0.7,0.8,1.1 c0.2,0.4,0.3,0.9,0.3,1.3v28c0,0.5-0.1,0.9-0.3,1.3c-0.2,0.4-0.4,0.8-0.8,1.1c-0.3,0.3-0.7,0.6-1.1,0.8c-0.4,0.2-0.9,0.3-1.3,0.3 h-51.1c-0.2,0-0.4,0-0.7,0.1c-0.2,0.1-0.4,0.2-0.6,0.4c-0.2,0.2-0.3,0.3-0.4,0.6c-0.1,0.2-0.1,0.4-0.1,0.7v14c0,0.2,0,0.4,0.1,0.7 c0.1,0.2,0.2,0.4,0.4,0.6c0.2,0.2,0.3,0.3,0.6,0.4c0.2,0.1,0.4,0.1,0.7,0.1h59.8c0.5,0,0.9,0.1,1.3,0.3c0.4,0.2,0.8,0.4,1.1,0.8 c0.3,0.3,0.6,0.7,0.8,1.1c0.2,0.4,0.3,0.9,0.3,1.3v28.5c0,0.5-0.1,0.9-0.3,1.3c-0.2,0.4-0.4,0.8-0.8,1.1c-0.3,0.3-0.7,0.6-1.1,0.8 c-0.4,0.2-0.9,0.3-1.3,0.3h-100c-0.5,0-0.9-0.1-1.3-0.3c-0.4-0.2-0.8-0.4-1.1-0.8c-0.3-0.3-0.6-0.7-0.8-1.1 c-0.2-0.4-0.3-0.9-0.3-1.3V94.4c0-0.5,0.1-0.9,0.3-1.3s0.4-0.8,0.8-1.1c0.3-0.3,0.7-0.6,1.1-0.8C873.7,91,874.2,90.9,874.6,90.9z"></path><path class="st12" d="M1029,227.7V94.4c0-0.5,0.1-0.9,0.3-1.3c0.2-0.4,0.4-0.8,0.8-1.1c0.3-0.3,0.7-0.6,1.1-0.8 c0.4-0.2,0.9-0.3,1.3-0.3h60.2c9.3,0,15.8,6.4,15.8,15.4v36.4c0,10.4-6.2,16.6-16,18.5c9.8,2.1,16.2,8.5,16.2,17.9v36.6 c0,1-0.1,2-0.3,3c-0.2,1-0.5,2-0.9,2.9s-0.9,1.8-1.4,2.7c-0.6,0.8-1.2,1.6-1.9,2.4c-0.7,0.7-1.5,1.4-2.4,1.9c-0.8,0.6-1.7,1-2.7,1.4 c-0.9,0.4-1.9,0.7-2.9,0.9s-2,0.3-3,0.3h-60.7c-0.5,0-0.9-0.1-1.3-0.3s-0.8-0.4-1.1-0.8c-0.3-0.3-0.6-0.7-0.8-1.1 C1029.1,228.6,1029,228.1,1029,227.7L1029,227.7z M1080.9,117.3c0-0.4-0.1-0.8-0.2-1.2s-0.4-0.7-0.7-1c-0.3-0.3-0.6-0.5-1-0.7 s-0.8-0.2-1.2-0.2h-19c-0.2,0-0.5,0-0.7,0.1s-0.4,0.2-0.6,0.4c-0.2,0.2-0.3,0.4-0.4,0.6s-0.1,0.4-0.1,0.7v31.8c0,0.2,0,0.5,0.1,0.7 s0.2,0.4,0.4,0.6c0.2,0.2,0.4,0.3,0.6,0.4c0.2,0.1,0.4,0.1,0.7,0.1h19.2c0.4,0,0.8-0.1,1.1-0.2c0.4-0.2,0.7-0.4,0.9-0.6 c0.3-0.3,0.5-0.6,0.6-0.9c0.1-0.4,0.2-0.7,0.2-1.1L1080.9,117.3L1080.9,117.3z M1080.9,174.2c0-0.4,0-0.8-0.2-1.1 c-0.1-0.4-0.3-0.7-0.6-1c-0.3-0.3-0.6-0.5-1-0.6s-0.8-0.2-1.1-0.2h-19.2c-0.2,0-0.5,0-0.7,0.1s-0.4,0.2-0.6,0.4s-0.3,0.4-0.4,0.6 c-0.1,0.2-0.1,0.4-0.1,0.7v33.5c0,0.2,0,0.5,0.1,0.7s0.2,0.4,0.4,0.6c0.2,0.2,0.4,0.3,0.6,0.4c0.2,0.1,0.4,0.1,0.7,0.1h19.2 c0.4,0,0.7,0,1.1-0.1s0.7-0.3,1-0.6s0.5-0.6,0.6-0.9c0.2-0.3,0.2-0.7,0.2-1.1V174.2L1080.9,174.2z"></path><path class="st12" d="M1196.9,90.9c1.1,0,2.1,0.1,3.2,0.3c1.1,0.2,2.1,0.5,3.1,0.9s1.9,0.9,2.8,1.5s1.7,1.3,2.5,2 c0.8,0.8,1.4,1.6,2,2.5s1.1,1.8,1.5,2.8s0.7,2,0.9,3.1c0.2,1.1,0.3,2.1,0.3,3.2v61.3c0,8.5-5,14.8-12.7,16.2l11.8,41.9 c0.1,0.3,0.1,0.5,0.1,0.8s0,0.5-0.1,0.8c0,0.3-0.1,0.5-0.2,0.8s-0.2,0.5-0.4,0.7c-0.2,0.2-0.3,0.4-0.6,0.6c-0.2,0.2-0.4,0.3-0.7,0.4 c-0.2,0.1-0.5,0.2-0.8,0.3s-0.5,0.1-0.8,0.1h-20.3c-0.4,0-0.8-0.1-1.1-0.2c-0.4-0.1-0.7-0.3-1-0.5s-0.6-0.5-0.8-0.8 c-0.2-0.3-0.4-0.7-0.5-1l-12-43.4h-10.6v42.4c0,0.5-0.1,0.9-0.3,1.3c-0.2,0.4-0.4,0.8-0.8,1.1c-0.3,0.3-0.7,0.6-1.1,0.8 s-0.9,0.3-1.3,0.3h-21c-0.5,0-0.9-0.1-1.3-0.3s-0.8-0.4-1.1-0.8c-0.3-0.3-0.6-0.7-0.8-1.1c-0.2-0.4-0.3-0.9-0.3-1.3V94.4 c0-0.5,0.1-0.9,0.3-1.3c0.2-0.4,0.4-0.8,0.8-1.1c0.3-0.3,0.7-0.6,1.1-0.8c0.4-0.2,0.9-0.3,1.3-0.3 C1138,90.9,1196.9,90.9,1196.9,90.9z M1185.6,116.8c0-0.5-0.1-1-0.5-1.3c-0.3-0.4-0.7-0.6-1.2-0.7h-19.4c-0.2,0-0.5,0-0.7,0.1 s-0.4,0.2-0.6,0.4c-0.2,0.2-0.3,0.4-0.4,0.6s-0.1,0.4-0.1,0.7V160c0,0.2,0,0.5,0.1,0.7s0.2,0.4,0.4,0.6c0.2,0.2,0.4,0.3,0.6,0.4 c0.2,0.1,0.4,0.1,0.7,0.1h19.4c0.2,0,0.4,0,0.6-0.1s0.4-0.2,0.5-0.4s0.3-0.3,0.4-0.5s0.1-0.4,0.1-0.6L1185.6,116.8z"></path><path class="st12" d="M1303.4,99.9c-1.4-1.3-2.8-2.6-4.3-3.7s-3.2-2.2-4.8-3.1c-1.7-0.9-3.4-1.7-5.2-2.3c-1.8-0.6-3.6-1.2-5.5-1.5 c-1.9-0.4-3.8-0.6-5.7-0.7c-1.9-0.1-3.8,0-5.7,0.1c-1.9,0.2-3.8,0.5-5.6,1c-1.9,0.5-3.7,1.1-5.4,1.8c-1.8,0.7-3.5,1.6-5.1,2.6 s-3.2,2.1-4.7,3.3c-1.5,1.2-2.9,2.5-4.1,3.9c-1.3,1.4-2.5,2.9-3.5,4.5c-1.1,1.6-2,3.3-2.8,5s-1.5,3.5-2.1,5.3s-1,3.7-1.3,5.6 s-0.4,3.8-0.4,5.7v100.2c0,0.5,0.1,0.9,0.3,1.4c0.2,0.4,0.4,0.8,0.8,1.1c0.3,0.3,0.7,0.6,1.1,0.8s0.9,0.3,1.3,0.3h20.8 c0.5,0,0.9-0.1,1.4-0.3c0.4-0.2,0.8-0.4,1.1-0.8s0.6-0.7,0.8-1.1c0.2-0.4,0.3-0.9,0.3-1.4v-40.8c0-0.2,0-0.5,0.1-0.7 s0.2-0.4,0.4-0.6c0.2-0.2,0.4-0.3,0.6-0.4c0.2-0.1,0.4-0.1,0.7-0.1h18.7c0.2,0,0.5,0,0.7,0.1s0.4,0.2,0.6,0.4s0.3,0.4,0.4,0.6 c0.1,0.2,0.1,0.4,0.1,0.7v40.8c0,0.5,0.1,0.9,0.3,1.3c0.2,0.4,0.4,0.8,0.8,1.2c0.3,0.3,0.7,0.6,1.1,0.8s0.9,0.3,1.3,0.3h20.8 c0.5,0,0.9-0.1,1.3-0.3s0.8-0.4,1.1-0.8c0.3-0.3,0.6-0.7,0.8-1.1c0.2-0.4,0.3-0.9,0.3-1.3V127.4c0-2.6-0.2-5.1-0.7-7.6 s-1.2-4.9-2.2-7.3s-2.2-4.6-3.6-6.7C1306.8,103.7,1305.2,101.7,1303.4,99.9L1303.4,99.9z M1287,160c0,0.2,0,0.5-0.1,0.7 s-0.2,0.4-0.4,0.6c-0.2,0.2-0.4,0.3-0.6,0.4c-0.2,0.1-0.4,0.1-0.7,0.1h-18.7c-0.2,0-0.5,0-0.7-0.1s-0.4-0.2-0.6-0.4 s-0.3-0.4-0.4-0.6c-0.1-0.2-0.1-0.4-0.1-0.7v-32.6h0.1c0-1.1,0.2-2.2,0.5-3.3c0.3-1.1,0.8-2.1,1.5-3s1.4-1.7,2.3-2.4 c0.9-0.7,1.9-1.2,2.9-1.6c1.2-0.4,2.4-0.6,3.7-0.6h0.1c0.7,0,1.4,0.1,2.1,0.2c0.7,0.2,1.4,0.4,2.1,0.6c0.7,0.3,1.3,0.6,1.9,1 s1.2,0.9,1.7,1.4s1,1.1,1.4,1.7s0.7,1.2,1,1.9c0.3,0.7,0.5,1.4,0.6,2.1s0.2,1.4,0.2,2.2L1287,160z"></path><path class="st12" d="M1364.4,153.5v74.2c0,0.5-0.1,0.9-0.3,1.3c-0.2,0.4-0.4,0.8-0.8,1.1c-0.3,0.3-0.7,0.6-1.1,0.8 s-0.9,0.3-1.3,0.3h-17.7c-0.5,0-0.9-0.1-1.3-0.3s-0.8-0.4-1.1-0.8c-0.3-0.3-0.6-0.7-0.8-1.1c-0.2-0.4-0.3-0.9-0.3-1.3V94.8 c0-0.5,0.1-1,0.3-1.5c0.2-0.5,0.5-0.9,0.8-1.3c0.4-0.4,0.8-0.7,1.3-0.9c0.5-0.2,1-0.3,1.5-0.3h17.9c0.8,0,1.5,0.2,2.2,0.7 s1.1,1.1,1.4,1.8l31.2,78.6V94.4c0-0.5,0.1-0.9,0.3-1.3c0.2-0.4,0.4-0.8,0.8-1.1c0.3-0.3,0.7-0.6,1.1-0.8c0.4-0.2,0.9-0.3,1.3-0.3 h17.7c0.5,0,0.9,0.1,1.3,0.3c0.4,0.2,0.8,0.4,1.1,0.8c0.3,0.3,0.6,0.7,0.8,1.1c0.2,0.4,0.3,0.9,0.3,1.3v132.8c0,0.5-0.1,1-0.3,1.5 c-0.2,0.5-0.5,0.9-0.9,1.3c-0.4,0.4-0.8,0.7-1.3,0.9s-1,0.3-1.5,0.3h-18c-0.8,0-1.5-0.2-2.2-0.7c-0.7-0.4-1.1-1-1.4-1.8 L1364.4,153.5z"></path><path class="st12" d="M1501,90.9c0.7,0,1.5,0,2.2,0.1s1.5,0.2,2.2,0.3c0.7,0.1,1.4,0.3,2.2,0.5c0.7,0.2,1.4,0.5,2.1,0.8 s1.4,0.6,2,0.9c0.7,0.4,1.3,0.7,1.9,1.1s1.2,0.9,1.8,1.3c0.6,0.5,1.1,1,1.6,1.5s1,1.1,1.5,1.6c0.5,0.6,0.9,1.2,1.3,1.8 c0.4,0.6,0.8,1.2,1.1,1.9c0.3,0.7,0.7,1.3,0.9,2c0.3,0.7,0.5,1.4,0.7,2.1s0.4,1.4,0.5,2.2c0.1,0.7,0.2,1.5,0.3,2.2 c0.1,0.7,0.1,1.5,0.1,2.2v94.8c0,13.3-9.6,22.9-22.6,22.9H1448c-0.5,0-0.9-0.1-1.3-0.3s-0.8-0.4-1.1-0.8c-0.3-0.3-0.6-0.7-0.8-1.1 c-0.2-0.4-0.3-0.9-0.3-1.3V94.4c0-0.5,0.1-0.9,0.3-1.3c0.2-0.4,0.4-0.8,0.8-1.1c0.3-0.3,0.7-0.6,1.1-0.8c0.4-0.2,0.9-0.3,1.3-0.3 L1501,90.9L1501,90.9z M1495.6,120.6c0-0.4,0-0.8-0.1-1.1s-0.2-0.7-0.3-1.1c-0.1-0.4-0.3-0.7-0.5-1s-0.5-0.6-0.7-0.9 c-0.3-0.3-0.6-0.5-0.9-0.7s-0.7-0.4-1-0.5s-0.7-0.3-1.1-0.3c-0.4-0.1-0.8-0.1-1.1-0.1h-15.3c-0.2,0-0.5,0-0.7,0.1s-0.4,0.2-0.6,0.4 c-0.2,0.2-0.3,0.4-0.4,0.6s-0.1,0.4-0.1,0.7v89c0,0.2,0,0.5,0.1,0.7s0.2,0.4,0.4,0.6c0.2,0.2,0.3,0.3,0.6,0.4 c0.2,0.1,0.4,0.1,0.7,0.1h15.3c0.4,0,0.8,0,1.2-0.1c0.4-0.1,0.8-0.2,1.1-0.3c0.4-0.1,0.7-0.3,1-0.5s0.6-0.5,0.9-0.7 c0.3-0.3,0.5-0.6,0.7-0.9c0.2-0.3,0.4-0.7,0.5-1c0.1-0.4,0.2-0.7,0.3-1.1c0.1-0.4,0.1-0.8,0.1-1.2L1495.6,120.6L1495.6,120.6z"></path><path class="st12" d="M1545.4,210.2c0-0.5,0.1-0.9,0.3-1.3c0.2-0.4,0.4-0.8,0.8-1.1c0.3-0.3,0.7-0.6,1.1-0.8s0.9-0.3,1.3-0.3h33 c0.2,0,0.5,0,0.7-0.1s0.4-0.2,0.6-0.4s0.3-0.4,0.4-0.6c0.1-0.2,0.1-0.5,0.1-0.7v-29.5c0-0.2,0-0.5-0.1-0.7s-0.2-0.4-0.4-0.6 c-0.2-0.2-0.4-0.3-0.6-0.4c-0.2-0.1-0.5-0.1-0.7-0.1h-21.6c-1,0-2-0.1-2.9-0.3c-1-0.2-1.9-0.5-2.8-0.8s-1.8-0.8-2.6-1.4 c-0.8-0.5-1.6-1.2-2.3-1.9c-0.7-0.7-1.3-1.5-1.9-2.3s-1-1.7-1.4-2.6c-0.4-0.9-0.7-1.8-0.9-2.8c-0.2-1-0.3-1.9-0.3-2.9v-52.4 c0-8.9,6.2-15.2,15-15.2h46.3c0.5,0,0.9,0.1,1.3,0.3c0.4,0.2,0.8,0.4,1.1,0.8c0.3,0.3,0.6,0.7,0.8,1.1c0.2,0.4,0.3,0.9,0.3,1.3v16.9 c0,0.5-0.1,0.9-0.3,1.3c-0.2,0.4-0.4,0.8-0.8,1.1c-0.3,0.3-0.7,0.6-1.1,0.8c-0.4,0.2-0.9,0.3-1.3,0.3H1575c-0.3,0-0.5,0.1-0.8,0.2 s-0.4,0.3-0.6,0.5s-0.3,0.4-0.4,0.7c-0.1,0.3-0.1,0.5-0.1,0.8v29.1c0,0.2,0.1,0.5,0.2,0.7s0.2,0.4,0.4,0.6c0.2,0.2,0.4,0.3,0.6,0.4 c0.2,0.1,0.5,0.2,0.7,0.2h21.6c8.7,0,15.2,6.2,15.2,15.2V216c0,8.9-6.4,15.2-15.2,15.2H1549c-0.5,0-0.9-0.1-1.3-0.3 s-0.8-0.4-1.1-0.8c-0.3-0.3-0.6-0.7-0.8-1.1c-0.2-0.4-0.3-0.9-0.3-1.3L1545.4,210.2L1545.4,210.2z"></path><path class="st12" d="M661.7,102.3l-50.3-26.1c-1.5-0.8-3.1-1.2-4.8-1.2s-3.3,0.4-4.8,1.2L578,88.5c-3,1.5-6.2,2.3-9.6,2.3h-19.5 c-0.5,0-0.9,0.1-1.4,0.3c-0.4,0.2-0.8,0.4-1.1,0.8c-0.3,0.3-0.6,0.7-0.8,1.2c-0.2,0.4-0.3,0.9-0.3,1.4v69.6h0.1v48 c0,11.4,7.7,19.1,19.1,19.1H645c0.7,0,1.5,0,2.2-0.1s1.5-0.2,2.2-0.3s1.4-0.3,2.2-0.5c0.7-0.2,1.4-0.5,2.1-0.8c0.7-0.3,1.4-0.6,2-1 c0.7-0.3,1.3-0.7,1.9-1.1c0.6-0.4,1.2-0.9,1.8-1.3c0.6-0.5,1.1-1,1.6-1.5s1-1.1,1.5-1.7c0.5-0.6,0.9-1.2,1.3-1.8 c0.4-0.6,0.8-1.2,1.1-1.9s0.7-1.3,1-2s0.5-1.4,0.8-2.1c0.2-0.7,0.4-1.4,0.5-2.2c0.1-0.7,0.3-1.5,0.3-2.2c0.1-0.7,0.1-1.5,0.1-2.2 v-96.3c0-1-0.1-2-0.4-3c-0.3-1-0.7-1.9-1.2-2.8s-1.2-1.7-1.9-2.4C663.4,103.4,662.6,102.8,661.7,102.3L661.7,102.3z M625.4,193.7 c0,0.3-0.1,0.6-0.3,0.9c-0.1,0.3-0.3,0.5-0.6,0.8c-0.2,0.2-0.5,0.4-0.8,0.5s-0.6,0.1-1,0.1h-33.1c-0.3,0-0.6-0.1-0.8-0.2 c-0.3-0.1-0.5-0.3-0.7-0.5s-0.4-0.4-0.5-0.7s-0.2-0.6-0.2-0.8v-66.9c0-0.3,0-0.6,0.2-0.9c0.1-0.3,0.3-0.6,0.5-0.8 c0.2-0.2,0.4-0.4,0.7-0.6s0.6-0.3,0.9-0.3h33.1c0.4,0,0.7,0.1,1,0.2s0.6,0.3,0.9,0.6c0.2,0.2,0.4,0.5,0.6,0.9c0.1,0.3,0.2,0.7,0.2,1 v66.7L625.4,193.7L625.4,193.7z"></path><g>	<path class="st1" d="M866.4,500.5h5.7c3.3,0,5.5,1.7,5.5,4.6l0,0c0,3.1-2.4,4.8-5.7,4.8h-1.8v3.8h-3.7V500.5L866.4,500.5z   M871.8,507.1c1.3,0,2.1-0.7,2.1-1.7l0,0c0-1.1-0.8-1.7-2.1-1.7h-1.7v3.5L871.8,507.1L871.8,507.1L871.8,507.1z"></path>	<path class="st1" d="M879,508v-7.4h3.7v7.3c0,1.9,1,2.8,2.4,2.8c1.5,0,2.4-0.9,2.4-2.7v-7.4h3.7v7.3c0,4.2-2.4,6.1-6.2,6.1  C881.2,514,879,512.1,879,508L879,508z"></path>	<path class="st1" d="M893.4,500.5h3.4l5.4,7v-7h3.6v13.2h-3.2l-5.7-7.2v7.2h-3.6L893.4,500.5L893.4,500.5L893.4,500.5z"></path>	<path class="st1" d="M907.8,507.2L907.8,507.2c0-3.9,2.9-6.9,6.9-6.9c2.7,0,4.4,1.1,5.6,2.7l-2.7,2.1c-0.8-0.9-1.6-1.6-2.9-1.6  c-1.9,0-3.2,1.6-3.2,3.5l0,0c0,2,1.3,3.5,3.2,3.5c1.4,0,2.2-0.6,3-1.6l2.7,2c-1.2,1.7-2.9,3-5.8,3c-3.7,0-6.8-2.9-6.8-6.6V507.2z"></path>	<path class="st1" d="M921.9,500.5h3.7v4.9h4.7v-4.9h3.7v13.2h-3.7v-5h-4.7v5h-3.7V500.5L921.9,500.5z"></path>	<path class="st1" d="M941.5,500.5h3.7v10h6.4v3.2h-10L941.5,500.5L941.5,500.5L941.5,500.5z"></path>	<path class="st1" d="M953.2,500.5h3.7v13.2h-3.7V500.5L953.2,500.5z"></path>	<path class="st1" d="M958.3,511.8l2-2.4c1.3,1,2.7,1.6,4.3,1.6c1,0,1.5-0.3,1.5-0.9l0,0c0-0.6-0.4-0.8-2.2-1.3  c-2.8-0.6-5-1.4-5-4.1l0,0c0-2.4,1.9-4.2,5.1-4.2c2.2,0,4,0.6,5.4,1.8l-1.8,2.6c-1.1-0.8-2.4-1.3-3.7-1.3c-0.9,0-1.3,0.4-1.3,0.8  l0,0c0,0.6,0.5,0.9,2.3,1.3c3,0.7,4.9,1.6,4.9,4.1l0,0c0,2.7-2.1,4.3-5.3,4.3C962.2,514,959.9,513.2,958.3,511.8z"></path>	<path class="st1" d="M974.4,503.8h-3.9v-3.2h11.6v3.2h-4v10h-3.7L974.4,503.8L974.4,503.8L974.4,503.8z"></path>	<path class="st1" d="M898,523.2h5.7c3.3,0,5.5,1.7,5.5,4.6l0,0c0,3.1-2.4,4.8-5.7,4.8h-1.8v3.8H898V523.2L898,523.2z M903.4,529.7  c1.3,0,2.1-0.7,2.1-1.7l0,0c0-1.1-0.8-1.7-2.1-1.7h-1.7v3.5L903.4,529.7L903.4,529.7z"></path>	<path class="st1" d="M910.7,523.2h6.2c2,0,3.4,0.5,4.3,1.4c0.8,0.8,1.2,1.8,1.2,3.1l0,0c0,2-1.1,3.4-2.7,4.1l3.2,4.6h-4.2l-2.7-4  h-1.6v4h-3.7V523.2L910.7,523.2z M916.8,529.5c1.2,0,2-0.6,2-1.6l0,0c0-1.1-0.8-1.6-2-1.6h-2.4v3.2L916.8,529.5L916.8,529.5z"></path>	<path class="st1" d="M923.8,529.8L923.8,529.8c0-3.8,3-6.9,7.1-6.9s7.1,3,7.1,6.8l0,0c0,3.8-3,6.9-7.1,6.9S923.8,533.6,923.8,529.8  z M934.3,529.8L934.3,529.8c0-2-1.4-3.6-3.4-3.6s-3.4,1.6-3.4,3.5l0,0c0,1.9,1.4,3.6,3.4,3.6S934.3,531.7,934.3,529.8z"></path>	<path class="st1" d="M938.8,534.4l2-2.4c1.3,1,2.7,1.6,4.3,1.6c1,0,1.5-0.3,1.5-0.9l0,0c0-0.6-0.4-0.8-2.2-1.3  c-2.8-0.6-5-1.4-5-4.1l0,0c0-2.4,1.9-4.2,5.1-4.2c2.2,0,4,0.6,5.4,1.7l-1.8,2.6c-1.1-0.8-2.4-1.3-3.7-1.3c-0.9,0-1.3,0.4-1.3,0.8  l0,0c0,0.6,0.5,0.9,2.3,1.3c3,0.7,4.9,1.6,4.9,4.1l0,0c0,2.7-2.1,4.3-5.3,4.3C942.6,536.6,940.4,535.9,938.8,534.4L938.8,534.4z"></path>	<path class="st1" d="M951.3,525c0-0.3,0-0.5,0.2-0.8c0.1-0.3,0.3-0.5,0.4-0.6c0.2-0.2,0.4-0.3,0.6-0.4c0.3-0.1,0.5-0.2,0.8-0.2  s0.5,0,0.8,0.2c0.3,0.1,0.5,0.3,0.6,0.4s0.3,0.4,0.4,0.6c0.1,0.3,0.2,0.5,0.2,0.8s0,0.5-0.2,0.8c-0.1,0.3-0.3,0.5-0.4,0.6  c-0.1,0.1-0.4,0.3-0.6,0.4c-0.3,0.1-0.5,0.2-0.8,0.2s-0.5,0-0.8-0.2c-0.3-0.1-0.5-0.3-0.6-0.4c-0.2-0.2-0.3-0.4-0.4-0.6  C951.3,525.5,951.3,525.2,951.3,525z M951.6,525c0,0.2,0,0.5,0.1,0.6c0.1,0.2,0.2,0.4,0.4,0.5c0.2,0.2,0.3,0.3,0.5,0.4  c0.2,0.1,0.4,0.1,0.7,0.1s0.5,0,0.7-0.1s0.4-0.2,0.5-0.4c0.2-0.2,0.3-0.3,0.4-0.5c0.1-0.2,0.1-0.4,0.1-0.6s0-0.5-0.1-0.7  s-0.2-0.4-0.4-0.5s-0.3-0.3-0.5-0.4c-0.2-0.1-0.4-0.1-0.7-0.1c-0.2,0-0.5,0-0.7,0.1s-0.4,0.2-0.5,0.4c-0.2,0.2-0.3,0.3-0.4,0.5  C951.6,524.5,951.6,524.7,951.6,525z M953.6,526.1l-0.4-0.8h-0.1v0.8h-0.8v-2.3h1.4c0.1,0,0.3,0.1,0.3,0.1c0.1,0.1,0.2,0.1,0.3,0.2  c0.1,0.1,0.1,0.2,0.1,0.4c0,0.3-0.1,0.5-0.4,0.6l0.5,0.9L953.6,526.1L953.6,526.1L953.6,526.1z M953.3,524.7c0.1,0,0.1,0,0.2-0.1  l0.1-0.1c0,0,0-0.1-0.1-0.1h-0.4v0.4h0.2V524.7L953.3,524.7z"></path></g><g>	<g id="Layer_7">		<g>			<g>				<path class="st12" d="M1055.4,489.1c-0.2-0.1-0.3-0.3-0.2-0.5l2.7-6.9c0.1-0.2,0-0.4-0.1-0.4l-2.8-1.1c-0.1,0-0.3,0-0.4,0.2     l-2,5c-0.5,1.2-1.9,1.9-3.2,1.4l-7.3-2.9c-1.2-0.5-1.9-1.9-1.4-3.1l3.8-9.6c0.1-0.2,0.3-0.3,0.4-0.2l3.5,1.4     c0.2,0.1,0.3,0.3,0.2,0.5l-2.6,6.6c-0.1,0.2,0,0.3,0.2,0.4l2.9,1.1c0.1,0,0.3,0,0.4-0.2l2-5c0.5-1.2,1.9-1.9,3.2-1.4l7.2,2.9     c1.2,0.5,1.9,1.9,1.4,3.1l-3.9,9.9c-0.1,0.2-0.3,0.3-0.5,0.2L1055.4,489.1L1055.4,489.1L1055.4,489.1z"></path>				<path class="st12" d="M1055.8,455.4c0.1-0.1,0.4-0.1,0.5,0l11,11.1c0.1,0.1,0.3,0.1,0.4,0l2.8-2.8c0.1-0.1,0.2-0.3,0-0.4     l-11-11.1c-0.1-0.1-0.1-0.4,0-0.5l3.3-3.3c0.1-0.1,0.4-0.1,0.5,0l12.7,12.8c0.9,1,0.9,2.4,0,3.3l-7.5,7.4     c-0.9,0.9-2.4,0.9-3.3,0l-12.7-12.8c-0.1-0.1-0.1-0.4,0-0.5L1055.8,455.4L1055.8,455.4L1055.8,455.4z"></path>				<path class="st12" d="M1083.6,448.2l3.4,9.8c0.1,0.2,0,0.4-0.2,0.4l-4,1.4c-0.2,0.1-0.4,0-0.4-0.2l-6.6-19     c-0.1-0.2,0-0.4,0.2-0.4l4.2-1.4c0.1,0,0.2,0,0.3,0.1l8.9,8.1c0.1,0.1,0.4,0,0.3-0.2l-3.4-9.8c-0.1-0.2,0-0.4,0.2-0.4l4-1.4     c0.2-0.1,0.4,0,0.4,0.2l6.6,19c0.1,0.2,0,0.4-0.2,0.4l-4.3,1.5c-0.1,0-0.2,0-0.3-0.1l-8.8-8.1     C1083.8,447.9,1083.6,448,1083.6,448.2L1083.6,448.2L1083.6,448.2z"></path>				<path class="st12" d="M1118.5,434.9c1.2,0.1,2.2,1.3,2.1,2.6l-1,9.5c-0.1,1.3-1.3,2.2-2.6,2.1h-0.2l1.7,6.4     c0.1,0.2-0.1,0.5-0.4,0.4l-4.5-0.5c-0.1,0-0.2-0.1-0.3-0.2l-1.7-6.4c0-0.1-0.2-0.2-0.3-0.2l-1.7-0.2c-0.2,0-0.3,0.1-0.4,0.3     l-0.7,5.9c0,0.2-0.2,0.3-0.4,0.3l-4.7-0.5c-0.2,0-0.3-0.2-0.3-0.4l2.2-20c0-0.2,0.2-0.3,0.4-0.3L1118.5,434.9L1118.5,434.9     L1118.5,434.9z M1115,439.3c0-0.1-0.1-0.3-0.2-0.3l-4.4-0.5l-0.6,5.5l4.4,0.5c0.1,0,0.3-0.1,0.3-0.2L1115,439.3L1115,439.3     L1115,439.3z"></path>				<path class="st12" d="M1128.2,460.4l-4.2-2c-0.2-0.1-0.2-0.3-0.2-0.5l8.8-18c0.1-0.2,0.3-0.2,0.4-0.2l4.2,2     c0.2,0.1,0.2,0.3,0.2,0.5l-8.8,18C1128.6,460.4,1128.4,460.5,1128.2,460.4L1128.2,460.4z"></path>				<path class="st12" d="M1136.4,460.4c0.1-0.1,0.3-0.1,0.5,0l5.3,5.2c0.2,0.1,0.3,0.1,0.4,0l2.1-2.2c0.1-0.1,0.1-0.3-0.1-0.4     l-3.8-3.7c-1-0.9-1-2.5,0-3.4l5.5-5.6c0.9-1,2.5-1,3.4,0l7.4,7.3c0.1,0.1,0.1,0.3,0,0.5l-2.6,2.7c-0.1,0.1-0.3,0.1-0.5,0l-5.1-5     c-0.1-0.1-0.3-0.1-0.4,0l-2.1,2.2c-0.1,0.1-0.1,0.3,0,0.4l3.8,3.7c1,0.9,1,2.5,0,3.4l-5.4,5.6c-0.9,1-2.5,1-3.4,0l-7.6-7.5     c-0.1-0.1-0.1-0.3,0-0.5L1136.4,460.4L1136.4,460.4L1136.4,460.4z"></path>				<path class="st12" d="M1165.3,469.2l5.1,11.8c0.1,0.2,0,0.4-0.2,0.5l-3.5,1.5c-0.2,0.1-0.4,0-0.4-0.2l-3-6.9     c-0.1-0.2-0.3-0.2-0.4-0.2l-2.7,1.2c-0.2,0.1-0.2,0.3-0.2,0.5l2.6,5.9c0.1,0.2,0,0.4-0.2,0.5l-3.4,1.5c-0.2,0.1-0.4,0-0.4-0.2     l-2.6-5.9c-0.1-0.2-0.3-0.2-0.4-0.2l-2.8,1.2c-0.2,0.1-0.2,0.3-0.2,0.5l3,6.9c0.1,0.2,0,0.4-0.2,0.5l-3.5,1.5     c-0.2,0.1-0.4,0-0.4-0.2l-5.1-11.8c-0.1-0.2,0-0.4,0.2-0.5l18.4-8C1165,469,1165.2,469.1,1165.3,469.2L1165.3,469.2     L1165.3,469.2z"></path>			</g>			<g>				<path class="st12" d="M1168.4,523.7L1168.4,523.7c-0.2,0-0.4,0-0.5,0l0,0c-1.7,0-3.7,0.9-5.1,2.2c-2.4,2.2-3.6,4.3-3.6,6.4     c0,1.8,1.3,3.2,3.2,3.4c0.2,0,0.3,0,0.5,0l0,0c1.7,0,3.7-0.9,5.1-2.2c2.4-2.2,3.6-4.3,3.6-6.4     C1171.7,525.3,1170.4,523.9,1168.4,523.7L1168.4,523.7z M1169.6,527.1c0,1.5-1,3.1-2.9,4.9c-1.2,1.2-2.8,1.7-3.7,1.7     c-0.1,0-0.2,0-0.3,0c-1.3-0.1-1.3-1-1.3-1.3c0-1.5,1-3.1,2.9-4.9c1.2-1.2,2.8-1.7,3.7-1.7c0.1,0,0.2,0,0.2,0h0.1     C1169.6,526,1169.6,526.8,1169.6,527.1L1169.6,527.1L1169.6,527.1z"></path>				<path class="st12" d="M1150.1,537.8c-6,0-6.5-4.3-6.5-5.6c0-4.6,3-9.7,8.8-15.1c4.7-4.3,10.4-5.7,13.2-4.5     c0.8,0.4,1.3,1,1.3,1.8c0,3.1-4.4,6-6.5,7c-0.2,0.1-0.2,0.3-0.2,0.4l0.6,1.3c0.1,0.2,0.3,0.2,0.4,0.2c1.5-0.7,7.7-4.1,7.7-8.9     c0-1.7-0.9-3-2.5-3.7c-1.8-0.8-4.4-0.8-7.1,0.1c-2.1,0.6-5.2,1.9-8.3,4.8c-6.4,5.9-9.5,11.3-9.5,16.6c0,4.7,3.4,7.7,8.6,7.7     h22.5c0.2,0,0.3-0.1,0.3-0.3v-1.5c0-0.2-0.1-0.3-0.3-0.3L1150.1,537.8L1150.1,537.8z"></path>				<path class="st12" d="M1124.3,517.1c0.2,0,0.4,0.2,0.3,0.4c-0.2,0.7-0.7,2-1.2,3.7l0,0c0,0.1-0.2,0.2-0.3,0.2h-1.5     c-0.2,0-0.4-0.2-0.3-0.4c0.6-1.6,1-2.9,1.2-3.7c0-0.1,0.2-0.2,0.3-0.2H1124.3L1124.3,517.1z"></path>				<path class="st12" d="M1135.5,535c-0.1-0.2-0.3-0.2-0.4-0.1l-1.9,1.3c-1.6,1.1-3.4,1.6-5.3,1.6h-2.3c-1-0.1-1.3-0.7-1.3-1.3     c0-1.5,1-3.1,2.9-4.9c1.6-1.5,3.6-1.9,4.4-1.6c0.1,0.1,0.2,0.1,0.2,0.4c0,0.3-0.3,0.8-0.8,1.2c-0.1,0.1-0.2,0.3-0.1,0.4l0.8,1.2     c0.1,0.2,0.3,0.2,0.4,0.1c0.7-0.5,1.8-1.5,1.8-2.9c0-1.1-0.6-1.9-1.5-2.3c-1.7-0.8-4.6,0.1-6.7,1.9c-2.4,2.2-3.6,4.3-3.6,6.4     c0,0.5,0.1,0.9,0.2,1.3h-2.5c-0.4,0-0.9,0-1-0.3c-0.5-0.7,0.2-2.8,0.8-4.7c0.2-0.5,0.3-0.9,0.4-1c1-2.9,1.8-5.5,2.6-7.8     c0.1-0.2-0.1-0.4-0.3-0.4h-1.5c-0.1,0-0.3,0.1-0.3,0.2c-0.7,2.1-1.5,4.5-2.3,7.1l0,0c-0.1,0.2-0.2,0.5-0.2,0.7     c-0.1,0.2-0.1,0.4-0.2,0.5c-0.2,0.6-0.5,1.2-0.7,1.6c-2.2,3.5-4.5,4.1-5.8,4.1l0,0c-0.3,0-0.6-0.1-0.8-0.4     c-0.1-0.2-0.3-0.5-0.1-0.9l1.9-5.8c0-0.1,0-0.3-0.1-0.4l-5.6-3.7c-0.2-0.1-0.4,0-0.5,0.2l-3.1,9.5c-0.3,1-0.9,1.6-1.6,1.6h-2.2     c-0.4,0-0.9,0-1-0.3c-0.5-0.7,0.2-2.8,0.8-4.7c0.2-0.5,0.3-1,0.4-1c1-3,1.9-5.7,2.6-8c0-0.1,0.2-0.2,0.3-0.2h12.2     c0.1,0,0.3-0.1,0.3-0.2c0.2-0.5,0.3-1,0.5-1.5c0.1-0.2-0.1-0.4-0.3-0.4h-11.7c-0.2,0-0.4-0.2-0.3-0.4c0.7-2.2,1.2-3.6,1.3-4h-2     c-0.1,0-0.3,0.1-0.3,0.2c-0.3,0.8-0.7,2.2-1.3,3.9c0,0.1-0.2,0.2-0.3,0.2h-4.2c-0.1,0-0.3,0.1-0.3,0.2c-0.2,0.5-0.3,1-0.5,1.5     c-0.1,0.2,0.1,0.4,0.3,0.4h3.8c0.2,0,0.4,0.2,0.3,0.4c-0.7,2-1.4,4.3-2.3,6.9l0,0c-0.1,0.2-0.2,0.5-0.2,0.7     c-0.1,0.2-0.1,0.4-0.2,0.5c-0.2,0.6-0.5,1.2-0.7,1.6c-2.2,3.5-4.5,4.1-5.8,4.1h-5c-1.4,0-1.6-0.7-1.6-1.3c0-1.5,1-3.1,2.9-4.9     c1.6-1.5,3.6-1.9,4.4-1.6c0.2,0.1,0.2,0.1,0.2,0.4c0,0.3-0.3,0.8-0.8,1.2c-0.1,0.1-0.2,0.3-0.1,0.4l0.8,1.2     c0.1,0.2,0.3,0.2,0.5,0.1c0.7-0.5,1.8-1.5,1.8-2.9c0-1.1-0.5-1.9-1.5-2.3c-1.7-0.8-4.6,0.1-6.7,1.9c-2.4,2.2-3.6,4.3-3.6,6.4     c0,0.5,0.1,0.9,0.2,1.3h-8c0.6-0.3,1.1-0.6,1.7-0.9c2.1-1.2,5.7-3.7,5.7-6.4c0-1.1-0.5-1.9-1.5-2.3c-1.7-0.8-4.6,0.1-6.7,1.9     c-2.4,2.2-3.6,4.3-3.6,6.4c0,0.3,0,0.5,0.1,0.8c-1.1,0.3-2.1,0.5-2.8,0.5h-1.4c-0.3,0-0.6-0.1-0.8-0.4c-0.1-0.2-0.3-0.5-0.1-0.9     l1.2-3.7c0.2-0.5,0.3-0.9,0.3-1c2.3-7,4.2-12.6,4.7-14.2c0.1-0.2-0.1-0.4-0.3-0.4h-1.5c-0.1,0-0.3,0.1-0.3,0.2     c-0.7,2-2.3,7-4.4,13.2l0,0l-0.5,1.6c-0.2,0.6-0.5,1.3-0.7,1.7c-2.2,3.5-4.5,4.1-5.8,4.1h-9.9c-4.1,0-6-0.5-6-3.1s5.5-6,8.9-7.6     l1.5-0.7c0.2-0.1,0.2-0.5,0-0.6l-1.5-0.7c0,0-2.8-1.2-3.2-3.3c-0.2-1.4,0.6-2.9,2.4-4.6c4.6-4.3,10.4-5.6,13.1-4.5     c0.8,0.4,1.2,0.9,1.2,1.8c0,3.1-4.4,5.9-6.4,7c-0.2,0.1-0.2,0.3-0.2,0.4l0.6,1.3c0.1,0.2,0.3,0.2,0.4,0.2     c1.5-0.7,7.6-4.1,7.6-8.8c0-1.7-0.9-3-2.5-3.7c-1.8-0.8-4.4-0.8-7.1,0.1c-2.1,0.6-5.2,1.9-8.2,4.8c-2.4,2.2-3.5,4.4-3.1,6.5     c0.3,1.8,1.5,3,2.6,3.8c-3,1.6-8.4,5-8.4,8.7c0,5.2,5,5.2,8.1,5.2h10.5l0,0c1.6-0.2,3.2-0.9,4.6-2.2c0.1,0.3,0.2,0.6,0.4,0.9     c0.6,0.8,1.5,1.2,2.5,1.3h1.4c1,0,2.4-0.3,3.9-0.8c0.7,0.5,1.5,0.8,2.5,0.8h17.1c2,0,3.9-0.8,5.5-2.4c0.1,0.5,0.2,0.9,0.5,1.2     c0.6,0.8,1.5,1.2,2.8,1.2h2.2c1.6,0,2.9-1.2,3.5-3.1l2.3-6.8c0.1-0.2,0.3-0.3,0.5-0.2l2,1.3c0.1,0.1,0.2,0.2,0.1,0.4l-1.4,4.3     c-0.3,1-0.2,2,0.4,2.8s1.5,1.2,2.5,1.3l0,0c2,0,3.9-0.8,5.5-2.4c0.1,0.5,0.2,0.9,0.5,1.2c0.6,0.8,1.5,1.2,2.8,1.2h5.6     c0.2,0,0.3,0,0.5,0l0,0h2c2.3,0,4.6-0.7,6.5-2l1.9-1.3c0.2-0.1,0.2-0.3,0.1-0.5L1135.5,535L1135.5,535L1135.5,535z      M1071.4,536.5L1071.4,536.5c0-1.5,1-3.1,2.9-4.9c1.2-1.2,2.8-1.7,3.8-1.7c0.2,0,0.5,0,0.6,0.1c0.2,0.1,0.2,0.1,0.2,0.4     c0,0.9-1.4,2.7-4.7,4.6C1073.3,535.6,1072.4,536.1,1071.4,536.5L1071.4,536.5L1071.4,536.5z"></path>			</g>			<g>				<g>					<path class="st12" d="M1104.6,478.9h1.7c0.1,0,0.2-0.1,0.2-0.2v-6.3c0-0.1-0.1-0.3-0.3-0.3h-1.6c-0.2,0-0.3,0.1-0.3,0.3v6.3      C1104.4,478.8,1104.5,478.9,1104.6,478.9L1104.6,478.9z"></path>					<g>						<path class="st12" d="M1120.7,484.5L1120.7,484.5l1.2,1.2c0.1,0.1,0.2,0.1,0.3,0l4.4-4.5c0.1-0.1,0.1-0.3,0-0.4l-1.1-1.1       c-0.1-0.1-0.3-0.1-0.4,0l-4.4,4.5C1120.6,484.3,1120.6,484.4,1120.7,484.5L1120.7,484.5z"></path>						<path class="st12" d="M1090.2,484.9L1090.2,484.9l-1.2,1.2c-0.1,0.1-0.2,0.1-0.3,0l-4.5-4.5c-0.1-0.1-0.1-0.3,0-0.4l1.1-1.1       c0.1-0.1,0.3-0.1,0.4,0l4.5,4.5C1090.2,484.7,1090.3,484.8,1090.2,484.9L1090.2,484.9z"></path>					</g>					<g>						<path class="st12" d="M1138.8,485.5c0.1,0,0.3,0,0.3,0.1l0.6,1.5c0.1,0.1,0,0.3-0.1,0.3l-12.9,5.4c-0.1,0-0.3,0-0.3-0.1       l-0.6-1.5c-0.1-0.1,0-0.3,0.1-0.3L1138.8,485.5z"></path>						<path class="st12" d="M1085,491.4c0.1,0,0.2,0.2,0.1,0.3l-0.6,1.5c-0.1,0.1-0.2,0.2-0.3,0.1l-12.9-5.4c-0.1,0-0.2-0.2-0.1-0.3       l0.6-1.5c0-0.1,0.2-0.2,0.3-0.1L1085,491.4z"></path>					</g>					<g>						<path class="st12" d="M1118.4,466.8c0-0.1,0.2-0.2,0.3-0.1l1.5,0.6c0.1,0,0.2,0.2,0.1,0.3l-5.3,12.9c0,0.1-0.2,0.2-0.3,0.1       l-1.5-0.6c-0.1,0-0.2-0.2-0.1-0.3L1118.4,466.8z"></path>						<path class="st12" d="M1090.5,467.8c0-0.1,0-0.3,0.1-0.3l1.5-0.6c0.1,0,0.3,0,0.3,0.1l5.3,12.9c0,0.1,0,0.3-0.1,0.3l-1.5,0.6       c-0.1,0-0.3,0-0.3-0.1L1090.5,467.8z"></path>					</g>					<path class="st12" d="M1103.7,496.7h3.4c0.2,0,0.4,0.2,0.4,0.4v4.7c0,0.2-0.2,0.4-0.4,0.4h-3.4c-0.2,0-0.4-0.2-0.4-0.4v-4.7      C1103.3,496.8,1103.5,496.7,1103.7,496.7z"></path>					<path class="st12" d="M1113.2,502.2c-0.3,0-0.6-0.3-0.6-0.6v-8.3c0-0.3-0.2-0.7-0.5-0.8l-6.1-3c-0.3-0.2-0.7-0.2-1,0l-3.2,1.6      c-0.3,0.1-0.6,0.2-0.9,0.2h-1.8c-0.4,0-0.7,0.3-0.7,0.7v9.7c0,0.3-0.3,0.6-0.6,0.6h-10.5c-0.3,0-0.6-0.3-0.6-0.6s0-0.7,0.1-1      c0.2-2.5,0.9-4.8,1.9-6.9c1.1-2.1,2.5-3.9,4.2-5.5c1.7-1.5,3.6-2.7,5.8-3.6c2-0.8,4.3-1.3,6.6-1.3h0.3c2.2,0,4.4,0.4,6.4,1.1      c2.2,0.8,4.2,2,6,3.5c1.8,1.6,3.3,3.5,4.4,5.6s1.8,4.5,2.1,7.1c0,0.3,0.1,0.7,0.1,1s-0.3,0.6-0.6,0.6L1113.2,502.2      L1113.2,502.2z"></path>				</g>				<g>					<path class="st12" d="M1038,500.2L1038,500.2v1.7c0,0.1,0.1,0.2,0.2,0.2h43.8c0.2,0,0.3-0.1,0.3-0.3v-1.6      c0-0.1-0.1-0.3-0.3-0.3h-43.8C1038.1,500,1038,500.1,1038,500.2L1038,500.2L1038,500.2z"></path>					<path class="st12" d="M1128.6,500.2L1128.6,500.2v1.7c0,0.1,0.1,0.2,0.2,0.2h43.8c0.2,0,0.3-0.1,0.3-0.3v-1.6      c0-0.1-0.1-0.3-0.3-0.3h-43.8C1128.7,500,1128.6,500.1,1128.6,500.2L1128.6,500.2L1128.6,500.2z"></path>				</g>			</g>			<circle class="st12" cx="1171.4" cy="534.3" r="1.5"></circle>		</g>	</g>	<g id="Trademark">		<path class="st12" d="M1178.7,512.8v0.5c0,0.9-0.2,1.5-0.5,1.9s-0.8,0.6-1.6,0.6h-1.7c-0.7,0-1.3-0.2-1.6-0.6s-0.5-1.1-0.5-1.9   v-0.5c0-0.8,0.2-1.5,0.5-1.9s0.8-0.7,1.6-0.7h1.7c0.7,0,1.3,0.2,1.6,0.7S1178.7,511.9,1178.7,512.8z M1175.1,515.1h1.4   c0.5,0,0.8-0.1,1-0.4s0.3-0.7,0.3-1.3v-0.7c0-0.6-0.1-1.1-0.3-1.4s-0.5-0.4-1-0.4h-1.4c-0.5,0-0.8,0.1-1,0.5   c-0.2,0.3-0.3,0.7-0.3,1.4v0.7c0,0.6,0.1,1,0.3,1.3C1174.3,514.9,1174.7,515.1,1175.1,515.1L1175.1,515.1L1175.1,515.1z    M1174.9,511.4h1.2c0.4,0,0.6,0.2,0.6,0.6v0.9c0,0.3-0.1,0.5-0.4,0.5l0.6,1.2h-0.7l-0.5-1.2h-0.1v1.2h-0.7V511.4L1174.9,511.4   L1174.9,511.4z M1176.1,512.7V512c0-0.1,0-0.1-0.1-0.1h-0.4v0.9L1176.1,512.7C1176.1,512.8,1176.1,512.8,1176.1,512.7   L1176.1,512.7L1176.1,512.7z"></path>	</g></g><g>	<path class="st12" d="M1310.2,463.2c4.5-4.5,9.8-12.4,9.8-24.9c0-1.6-0.9-3.2-2.3-4c-1.5-0.8-3.4-0.7-4.9,0.2  c-6.8,4.3-12.2,10-15.2,15.9c-0.8-0.2-1.6-0.4-2.4-0.5l-0.3-1.8l-2.4,0.4c-1.8,0.3-3.6,0.8-5.3,1.5c-3-5.7-8.4-11.2-15-15.5  c-1.5-1-3.3-1.1-4.9-0.2c-1.5,0.8-2.3,2.3-2.3,4c0,12.5,5.3,20.4,9.8,24.9c1.1,1.1,1.1,3,0,4.2l-2.6,2.6l2.6,2.6  c0.2,0.2,0.5,0.5,0.7,0.7c1.6,1.9,2.5,4.2,2.5,6.7v2.4h0c-0.3,0.9-0.5,2-0.5,3c0,2.1,0.7,4.1,2.1,5.7c0.5,7.1,6.7,12.4,13.9,11.9  c6.4-0.5,11.4-5.5,11.9-11.9c2-2.4,2.6-5.7,1.6-8.7h0v-2.4c0-2.5,0.9-4.9,2.5-6.7c0.2-0.3,0.5-0.5,0.7-0.7l2.7-2.6l-2.6-2.6  C1309,466.1,1309,464.3,1310.2,463.2z M1308.4,470.8c-0.3,0.3-0.5,0.6-0.8,0.8c-2,2.3-3.1,5.3-3.1,8.3h-1.1c0,0.4-0.1,0.8-0.1,1.1  c2.3,2.6,2.2,6.6-0.4,9c0,3.2-1.4,6.2-3.9,8.2c-4.5,3.6-11.1,3-14.7-1.6c-1.5-1.9-2.3-4.2-2.3-6.7c-2.6-2.4-2.7-6.4-0.4-9  c0-0.3,0-0.7-0.1-1.1h-1.1c0-3.1-1.1-6-3.1-8.3c-0.3-0.3-0.5-0.5-0.8-0.8l-0.9-0.8l0.9-0.9c2.1-2.1,2.1-5.5,0-7.6  c-4.1-4.1-9.1-11.5-9.1-23.2c0-0.8,0.4-1.5,1.1-1.9c0.8-0.4,1.7-0.3,2.4,0.1c7.1,4.6,12.7,10.7,15.1,16.7c2.2-1.1,4.5-1.9,6.9-2.3  l0.2,1.3c2,0.1,4,0.5,5.8,1.2c2.4-6.1,8-12.3,15.2-16.8c0.7-0.5,1.6-0.5,2.4-0.1c0.7,0.4,1.1,1.1,1.1,1.9c0,11.6-4.9,19-9.1,23.2  c-2.1,2.1-2.1,5.5,0,7.6l0.9,0.9L1308.4,470.8z"></path>	<path class="st12" d="M1314.8,443.1c-1.8,2.4-4.5,5.9-8.8,11.3l-0.2,0.3l-1.9-1.5l0.2-0.3c4.6-5.8,8.9-11.3,10.5-13.7  c-5.2,3.5-11.1,9.1-13.5,15.3c1.2,0.7,2.3,1.6,3.3,2.6l0,0l0,0l-1.7,1.7c-5.2-5.2-13.5-5.6-19.2-1l-0.1,0.1l-0.3,0.3l-0.2,0.2  c-0.2,0.1-0.3,0.3-0.5,0.4l-1.8-1.7l0,0l0,0c0.7-0.7,1.4-1.3,2.2-1.8c0.4-0.3,0.7-0.5,1.1-0.8c-2.4-6.2-8.3-11.8-13.5-15.3  c1.5,2.4,5.9,7.9,10.5,13.7l0.2,0.3l-1.9,1.5l-0.2-0.3c-4.3-5.4-7-8.9-8.8-11.3c0.9,6.6,3.6,12.1,8.1,16.6c2,2,2.8,5.1,1.9,7.8  c4-1.3,8.4,0,10.9,3.3l-1.9,1.5c-0.9-1.1-2-2-3.4-2.4c-0.9,1.4-2.7,1.7-4.1,0.8c-0.3-0.2-0.6-0.5-0.8-0.8c-0.5,0.2-0.9,0.4-1.3,0.6  c4.4,5.1,4.4,9.4,4.4,11v0.5l-0.4,0.4c-1.6,1.5-1.7,4-0.2,5.6c0.1,0.1,0.3,0.3,0.5,0.4l0,0c5.1,3.7,12,3.7,17.1,0l0,0  c1.8-1.3,2.1-3.8,0.8-5.6c-0.1-0.2-0.3-0.3-0.4-0.5l-0.4-0.4v-0.6c0-1.7,0-5.9,4.4-11c-0.4-0.3-0.8-0.5-1.3-0.6  c-0.9,1.4-2.7,1.7-4.1,0.8c-0.3-0.2-0.6-0.5-0.8-0.8c-1.3,0.5-2.5,1.3-3.4,2.4l-1.9-1.5c2.6-3.3,7-4.6,11-3.3  c-0.9-2.8-0.1-5.8,1.9-7.8C1311.2,455.2,1313.9,449.6,1314.8,443.1z M1288.8,489.2l-1.6-0.6c-0.8-0.3-1.5-0.7-2.2-1.2  c-0.9-0.7-1.3-1.9-0.9-3c0.3-0.8,1.1-1.3,2-1.2c1.7,0,2.7,1.6,2.7,4.2V489.2z M1296.2,487.4c0-2.6,1.1-4.2,2.7-4.2  c0.9,0,1.7,0.5,2,1.2c0.4,1.1,0.1,2.3-0.9,3c-0.7,0.5-1.4,0.9-2.2,1.2l-1.6,0.6V487.4z"></path>	<path class="st12" d="M1292.5,496c-2.1,0-4-1.2-5-3c-1-0.3-2-0.7-2.9-1.2c0.9,4.3,5.2,7.1,9.6,6.2c3.1-0.7,5.5-3.1,6.2-6.2  c-0.9,0.5-1.9,0.9-2.9,1.2C1296.4,494.8,1294.5,496,1292.5,496z"></path>	<path class="st12" d="M1261.9,509.5c1.2,0,2.2,0.9,2.2,2.1c0,0,0,0.1,0,0.1v9.3c0.1,1.2-0.9,2.2-2,2.3c-0.1,0-0.1,0-0.2,0h-5.5  v-13.7L1261.9,509.5L1261.9,509.5z M1261.3,512.4c0-0.3-0.2-0.5-0.5-0.6c0,0,0,0-0.1,0h-1.7v9.1h1.7c0.3,0,0.5-0.2,0.6-0.5  c0,0,0,0,0,0S1261.3,512.4,1261.3,512.4z"></path>	<path class="st12" d="M1268.9,509.5v11.3c0,0.1,0.1,0.2,0.1,0.2h1.8c0.1,0,0.1-0.1,0.2-0.2v-11.3h2.8v12.1c0,0.9-0.7,1.6-1.5,1.6  c0,0-0.1,0-0.1,0h-4.4c-0.9,0-1.6-0.6-1.6-1.5c0,0,0-0.1,0-0.1v-12.1L1268.9,509.5L1268.9,509.5z"></path>	<path class="st12" d="M1278.5,515.3v8h-2.5v-13.7h2.6l2.2,6.5l2.1-6.5h2.7v13.7h-2.6v-8l-1.8,4.8h-1.1L1278.5,515.3z"></path>	<path class="st12" d="M1293.9,509.5c0.9,0,1.6,0.6,1.6,1.5c0,0,0,0.1,0,0.1v6.8c0,0.9-0.7,1.6-1.5,1.6c0,0-0.1,0-0.1,0h-3.2v3.7  h-2.8v-13.7H1293.9L1293.9,509.5z M1292.6,517.2c0.1,0,0.1-0.1,0.2-0.2v-5c0-0.1-0.1-0.2-0.2-0.2h-2v5.4H1292.6z"></path>	<path class="st12" d="M1310.6,509.5v2.3h-2.2v11.4h-2.7v-11.4h-5.9c-0.1,0-0.2,0.1-0.2,0.2v2.8c0,0.1,0.1,0.2,0.2,0.2h2.1  c0.8,0,1.5,0.6,1.5,1.4c0,0,0,0.1,0,0.1v5.2c0,0.8-0.6,1.5-1.4,1.5c0,0-0.1,0-0.1,0h-5v-2.4h3.6c0.1,0,0.2-0.1,0.2-0.1v0v-2.9  c0-0.1-0.1-0.2-0.1-0.2h0h-2.1c-0.8,0-1.4-0.6-1.5-1.4c0,0,0-0.1,0-0.1V511c0-0.8,0.6-1.5,1.3-1.5c0,0,0.1,0,0.1,0L1310.6,509.5  L1310.6,509.5z"></path>	<path class="st12" d="M1311.6,509.5h6.5v2.3h-3.8v3.3h3.2v2.3h-3.2v3.4h3.8v2.4h-6.5V509.5z"></path>	<path class="st12" d="M1325.8,509.5c0.8,0,1.6,0.6,1.6,1.5c0,0,0,0.1,0,0.1v6c0,0.8-0.5,1.5-1.2,1.6l1.3,4.5h-2.7l-1.2-4.5h-1.1  v4.5h-2.7v-13.7H1325.8z M1324.7,512c0-0.1-0.1-0.2-0.2-0.2h-2.1v4.7h2.1c0.1,0,0.2-0.1,0.2-0.2V512L1324.7,512z"></path>	<polygon class="st12" points="1269.7,527.7 1269.7,533 1265.8,537.3 1260.3,531.4 1260.3,540 1256.3,540 1256.3,526.2   1260.6,526.2 1265.8,531.8  "></polygon>	<rect x="1271.1" y="526.2" class="st12" width="4.5" height="13.7"></rect>	<path class="st12" d="M1294,526.2v9.8c0,0.5-0.1,1.1-0.3,1.6c-0.2,0.5-0.5,0.9-0.9,1.2c-0.4,0.4-0.9,0.6-1.4,0.8  c-0.6,0.2-1.3,0.3-1.9,0.3h-4.9v-3.8h4.9v-9.9L1294,526.2L1294,526.2z"></path>	<path class="st12" d="M1283.2,526.2V540c-0.7,0-1.3-0.1-1.9-0.3c-0.5-0.2-1-0.4-1.4-0.8c-0.4-0.3-0.7-0.8-0.9-1.2  c-0.2-0.5-0.3-1-0.3-1.6v-9.8L1283.2,526.2L1283.2,526.2z"></path>	<rect x="1303.3" y="536.6" class="st12" width="7.4" height="3.4"></rect>	<rect x="1297.5" y="526.2" class="st12" width="4.5" height="13.7"></rect>	<rect x="1319.1" y="526.2" class="st12" width="8.6" height="3.2"></rect>	<rect x="1319.1" y="531.4" class="st12" width="5.9" height="3.2"></rect>	<rect x="1319.1" y="536.6" class="st12" width="8.8" height="3.4"></rect>	<rect x="1313.3" y="526.2" class="st12" width="4.5" height="13.7"></rect></g></svg>